<?xml version="1.0" encoding="UTF-8" standalone="no"?>
<!-- Created with Inkscape (http://www.inkscape.org/) -->

<svg
   xmlns:dc="http://purl.org/dc/elements/1.1/"
   xmlns:cc="http://creativecommons.org/ns#"
   xmlns:rdf="http://www.w3.org/1999/02/22-rdf-syntax-ns#"
   xmlns:svg="http://www.w3.org/2000/svg"
   xmlns="http://www.w3.org/2000/svg"
   xmlns:sodipodi="http://sodipodi.sourceforge.net/DTD/sodipodi-0.dtd"
   xmlns:inkscape="http://www.inkscape.org/namespaces/inkscape"
   width="210mm"
   height="297mm"
   viewBox="0 0 210 297"
   version="1.1"
   id="svg3729"
   inkscape:version="0.92.4 (5da689c313, 2019-01-14)"
   sodipodi:docname="dibujo.svg">
  <defs
     id="defs3723">
    <inkscape:perspective
       sodipodi:type="inkscape:persp3d"
       inkscape:vp_x="0 : 137.99384 : 1"
       inkscape:vp_y="0 : 779.93446 : 0"
       inkscape:vp_z="210 : 137.99384 : 1"
       inkscape:persp3d-origin="105 : 99.387088 : 1"
       id="perspective3743" />
  </defs>
  <sodipodi:namedview
     id="base"
     pagecolor="#ffffff"
     bordercolor="#666666"
     borderopacity="1.0"
     inkscape:pageopacity="0.0"
     inkscape:pageshadow="2"
     inkscape:zoom="0.7"
     inkscape:cx="-499.58529"
     inkscape:cy="378.38037"
     inkscape:document-units="mm"
     inkscape:current-layer="layer1"
     showgrid="false"
     inkscape:window-width="1366"
     inkscape:window-height="705"
     inkscape:window-x="-8"
     inkscape:window-y="-8"
     inkscape:window-maximized="1" />
  <metadata
     id="metadata3726">
    <rdf:RDF>
      <cc:Work
         rdf:about="">
        <dc:format>image/svg+xml</dc:format>
        <dc:type
           rdf:resource="http://purl.org/dc/dcmitype/StillImage" />
        <dc:title></dc:title>
      </cc:Work>
    </rdf:RDF>
  </metadata>
  <g
     inkscape:label="Capa 1"
     inkscape:groupmode="layer"
     id="layer1">
    <flowRoot
       xml:space="preserve"
       id="flowRoot3781"
       style="fill:black;fill-opacity:1;stroke:none;font-family:sans-serif;font-style:normal;font-weight:normal;font-size:40px;line-height:1.25;letter-spacing:0px;word-spacing:0px"><flowRegion
         id="flowRegion3783"><rect
           id="rect3785"
           width="39.39595"
           height="40.406101"
           x="337.39096"
           y="633.60583" /></flowRegion><flowPara
         id="flowPara3787"></flowPara></flowRoot>    <flowRoot
       xml:space="preserve"
       id="flowRoot3789"
       style="fill:black;fill-opacity:1;stroke:none;font-family:sans-serif;font-style:normal;font-weight:normal;font-size:40px;line-height:1.25;letter-spacing:0px;word-spacing:0px"><flowRegion
         id="flowRegion3791"><rect
           id="rect3793"
           width="26.263966"
           height="54.548237"
           x="251.52798"
           y="636.63629" /></flowRegion><flowPara
         id="flowPara3795"></flowPara></flowRoot>    <flowRoot
       xml:space="preserve"
       id="flowRoot3797"
       style="fill:black;fill-opacity:1;stroke:none;font-family:sans-serif;font-style:normal;font-weight:normal;font-size:40px;line-height:1.25;letter-spacing:0px;word-spacing:0px"><flowRegion
         id="flowRegion3799"><rect
           id="rect3801"
           width="6.0609155"
           height="41.416256"
           x="361.63461"
           y="653.8089" /></flowRegion><flowPara
         id="flowPara3803"></flowPara></flowRoot>    <path
       style="fill:#2b0000;stroke-width:0.26458332"
       id="path3831"
       d="m 48.442625,218.88022 c -0.276264,-0.97001 -0.716822,-1.89556 -1.173879,-2.79323 -0.404776,-0.7126 -0.982335,-0.95372 -1.715564,-1.21358 -0.872379,-0.39843 -1.828795,-0.47806 -2.761104,-0.63571 -0.94007,-0.15961 -1.891737,-0.22382 -2.843411,-0.25834 -0.800642,-0.0193 -1.601626,-0.0184 -2.402448,-0.0164 -0.843913,-0.0569 -1.661571,0.11643 -2.466023,0.35375 -1.053999,0.36755 -2.105197,0.72967 -3.143382,1.14213 -1.215454,0.61595 -3.555445,1.98661 1.835295,-1.09054 0.162923,-0.093 -0.325112,0.18744 -0.484084,0.28703 -0.405519,0.25408 -0.559541,0.37644 -0.953746,0.66227 -1.010132,0.7046 -1.810057,1.63501 -2.537153,2.61737 -0.868233,1.29205 -1.505162,2.71611 -2.122162,4.13936 -0.753179,1.67146 -1.219716,3.44992 -1.61593,5.23397 -0.382555,1.80994 -0.703167,3.63293 -0.911055,5.47133 -0.09556,1.47065 -0.218385,2.93628 -0.403315,4.39849 -0.155544,1.49447 -0.358826,2.98107 -0.726919,4.43862 -0.371015,1.41619 -0.775481,2.82503 -1.254456,4.20871 -0.427305,1.26924 -1.104715,2.41521 -1.860272,3.5116 -0.814067,1.12501 -1.792211,2.11173 -2.838532,3.01889 -0.711605,0.62536 -1.48349,1.17189 -2.279166,1.68354 -1.659392,1.54342 -3.235497,1.88787 -5.044406,2.6578 -0.2301,0.17439 -0.51623,0.23739 -0.7703395,0.35959 -0.0581,0.0279 -0.21527,0.14164 -0.1614,0.10631 3.3796435,-2.21602 2.0442815,-1.86067 3.4926395,-2.22592 0.939871,0.0176 1.871263,-0.13928 2.813153,-0.12506 1.40697,-0.0382 2.646939,0.58857 3.862983,1.21941 1.985259,1.03036 3.874259,2.23804 5.778563,3.40964 1.574012,0.93508 3.125947,1.89618 4.753142,2.73587 1.852885,1.06486 3.926488,1.53989 5.993654,1.98339 2.903513,0.56746 5.862418,0.64955 8.810762,0.63492 1.730833,-0.0491 3.491458,-0.13231 5.157663,-0.65215 0.736394,-0.22975 1.301853,-0.5151 2.000441,-0.83469 0.30322,-0.17811 1.220668,-0.69848 0.909664,-0.53434 -3.417745,1.80386 -2.891825,1.78332 -1.654644,0.73673 0.705808,-0.59708 1.317562,-1.2727 1.915269,-1.9741 1.320699,-1.66079 2.09442,-3.61954 2.705896,-5.62856 0.385644,-1.47533 0.617069,-2.99839 0.562176,-4.52705 -0.03137,-0.87364 -0.127823,-1.33058 -0.260884,-2.19152 -0.320715,-1.20924 -0.633704,-2.83488 -1.497777,-3.80743 -0.101352,-0.11407 -0.233045,-0.19705 -0.349568,-0.29557 -1.182872,-0.58002 -2.514862,-0.3959 -3.761539,-0.16597 -1.596633,0.27022 -3.142768,0.75382 -4.690856,1.21498 -0.598699,0.1508 -1.191895,0.31517 -1.785921,0.483 0,0 3.120541,-2.39898 3.120541,-2.39898 v 0 c 0.579315,-0.15802 1.164095,-0.29381 1.741924,-0.45729 1.542761,-0.45247 3.096487,-0.8772 4.682646,-1.15075 1.356188,-0.21093 2.807927,-0.36287 4.019856,0.41797 0.129207,0.12817 0.274963,0.24159 0.387623,0.38453 0.828135,1.05071 1.145516,2.74739 1.484273,4.00149 0.137575,0.85722 0.246515,1.37829 0.284091,2.24968 0.06703,1.55453 -0.141994,3.114 -0.512091,4.62064 -0.588396,2.03663 -1.328621,4.03091 -2.601245,5.75078 -0.683917,0.8438 -1.747071,2.10023 -2.656827,2.67765 -1.342091,0.85183 -2.720972,1.6444 -4.091141,2.45029 -0.303231,0.17835 -0.618892,0.33467 -0.928336,0.502 -0.799745,0.3415 -1.193024,0.54142 -2.035344,0.77272 -1.674498,0.45981 -3.423065,0.49435 -5.146267,0.53686 -2.978161,-0.002 -5.967386,-0.0995 -8.900036,-0.66853 -2.112412,-0.44542 -4.222065,-0.95005 -6.120484,-2.0213 -1.624256,-0.84771 -3.157517,-1.84217 -4.725623,-2.78803 -1.894305,-1.1776 -3.775802,-2.39522 -5.79076,-3.35886 -1.216385,-0.574 -2.441245,-1.10788 -3.818105,-1.03139 -0.971169,0.0268 -1.946952,0.21102 -2.914992,0.0825 -0.1048395,-0.0509 -0.4020795,-0.0758 -0.3145195,-0.15272 1.4831875,-1.30293 2.5218995,-2.12392 4.1222425,-2.78402 1.453478,-0.52805 4.121941,-2.03825 -1.736434,1.21435 0.807329,-0.51766 1.625603,-1.01833 2.347095,-1.65613 1.066393,-0.87234 2.053503,-1.83611 2.894264,-2.9315 0.749477,-1.06931 1.452266,-2.16731 1.884598,-3.4101 0.505761,-1.37404 0.935006,-2.77562 1.303287,-4.19268 0.376108,-1.43796 0.58179,-2.90847 0.731282,-4.38636 0.182261,-1.46421 0.338722,-2.9292 0.42278,-4.40299 0.21113,-1.85663 0.554138,-3.69419 0.931913,-5.52355 0.372811,-1.79795 0.803008,-3.599 1.54773,-5.28462 0.615445,-1.43508 1.233657,-2.87343 2.064116,-4.20167 0.689776,-1.02066 1.478462,-1.98779 2.47574,-2.72502 1.936192,-1.47068 4.078052,-2.67912 6.283158,-3.70042 1.052357,-0.40446 2.114786,-0.78351 3.189796,-1.12289 0.836427,-0.20057 1.673836,-0.33576 2.53787,-0.27962 0.800968,0.002 1.602253,5.3e-4 2.402599,0.037 0.958781,0.047 1.914152,0.14354 2.861368,0.30208 0.957848,0.14768 1.918137,0.29993 2.814823,0.68922 0.785013,0.29537 1.472999,0.69488 1.87007,1.47041 0.440904,0.9317 0.861978,1.87742 1.245367,2.83368 0,0 -3.480213,1.89704 -3.480213,1.89704 z"
       inkscape:connector-curvature="0" />
    <path
       style="fill:#2b0000;stroke-width:0.28344935"
       id="path3835"
       d="m 93.392389,223.22336 c -0.0353,0.80246 -0.01879,1.60556 -0.01927,2.40833 -2.67e-4,0.72569 0.0038,1.45136 0.0087,2.17704 -0.0051,0.71448 -0.0058,1.42895 -0.0046,2.14345 0.01346,0.59488 -0.0178,1.19048 0.02049,1.78488 -4.229349,6.35618 -4.041239,1.8114 -4.312455,0.61203 -0.135024,-0.62 -0.35997,-1.22117 -0.623591,-1.81123 -0.211635,-0.53279 -0.58373,-1.00562 -0.903694,-1.49613 -0.348004,-0.46209 -0.640334,-0.97952 -1.125623,-1.35543 -0.402485,-0.35573 -0.887012,-0.60527 -1.449184,-0.74326 -0.601967,-0.13291 -1.196462,-0.26201 -1.817745,-0.32186 -0.472887,-0.0248 -0.984787,-0.0671 -1.449013,0.045 -0.147777,0.0357 -0.581161,0.25017 -0.701461,0.30716 6.951191,-3.5445 2.344814,-1.0209 0.809949,0.0544 -0.918989,0.67721 -1.891574,1.30126 -2.831085,1.95836 -0.950635,0.67766 -1.852527,1.39982 -2.747413,2.12685 -1.002683,0.80738 -1.932225,1.67355 -2.902787,2.50658 -0.981856,0.83453 -1.86874,1.73174 -2.688436,2.67666 -0.859971,0.97474 -1.60287,2.01698 -2.389615,3.03296 -0.853813,1.05246 -1.631225,2.14639 -2.410154,3.23746 -0.723597,1.02103 -1.259216,2.11794 -1.710804,3.23743 -0.721034,1.5277 -1.215051,3.10906 -1.624131,4.71034 -0.55946,2.13074 -0.908688,4.29047 -1.133055,6.46116 -0.200533,2.29981 -0.212867,4.60685 -0.22356,6.91145 -0.04085,1.97274 0.02261,3.94383 0.326171,5.90159 0.249081,1.50561 0.879709,2.92838 1.728084,4.26881 0.702443,1.16108 1.585719,2.23655 2.558802,3.25248 1.032721,1.08739 2.3733,1.89283 3.892344,2.44855 1.550032,0.54907 3.225433,0.68149 4.88962,0.76244 2.109437,0.0862 4.216431,-0.0683 6.282977,-0.41372 2.214575,-0.38518 4.275219,-1.1597 6.25953,-2.03575 2.751757,-1.31029 -1.972816,0.9397 -2.207784,1.04827 -0.264319,0.12213 0.515635,-0.26262 0.771466,-0.39654 0.74357,-0.38925 1.47448,-0.79276 2.199397,-1.20517 1.531915,-0.84993 2.839617,-1.91719 4.051955,-3.05785 1.127706,-1.20232 2.127711,-2.48037 3.022851,-3.80829 0.790469,-1.34234 1.287136,-2.78284 1.704869,-4.22993 0.345616,-1.23484 0.436616,-2.50071 0.484499,-3.76307 0.02143,-0.83858 0.02978,-1.67585 -0.07806,-2.51029 -0.11739,-0.87119 -0.617002,-1.63283 -1.187295,-2.35449 -0.534337,-0.69179 -1.280513,-1.1063 -2.205154,-1.36042 -0.875587,-0.17914 -1.796174,-0.23932 -2.693115,-0.16237 -0.967833,0.14179 -1.895252,0.391 -2.825311,0.64509 -0.154046,0.0374 -0.310928,0.0675 -0.462137,0.11217 -0.316828,0.0936 -0.435674,0.15956 -0.719297,0.2985 -0.117543,0.0576 -0.469782,0.23082 -0.350943,0.1751 3.670899,-1.72182 4.650486,-2.38226 3.097657,-1.38198 -1.248678,0.85608 -2.409999,1.79248 -3.542808,2.75098 -1.142666,0.96114 -2.257614,1.94557 -3.35037,2.94553 -1.049271,0.97146 -2.03701,1.98699 -3.021729,3.0031 -0.769455,0.79479 -1.539665,1.58962 -2.295886,2.39306 -0.450514,0.46055 -0.866514,0.94482 -1.317332,1.40458 -1.922865,1.67983 -3.539551,2.17914 -5.826733,2.20653 -1.091654,-0.003 -2.183254,-0.0114 -3.274943,-0.0109 -0.602282,0.0336 -1.189399,-0.0168 -1.782933,-0.0914 0,0 3.799006,-2.21521 3.799006,-2.21521 v 0 c 0.572026,0.0584 1.144275,0.0727 1.720777,0.0653 1.096371,0.006 2.193428,0.0155 3.289283,-0.0189 0.341559,-0.019 0.696315,-0.0276 1.027921,-0.10707 0.09351,-0.0224 0.355981,-0.12829 0.272433,-0.087 -3.46107,1.71055 -5.126326,2.31563 -3.543227,1.73259 0.268581,-0.17015 0.38598,-0.3387 0.581237,-0.56383 0.24682,-0.28456 0.584437,-0.50224 0.804064,-0.80473 0.746486,-0.8249 1.56936,-1.60381 2.334504,-2.41703 0.99232,-1.01949 1.981534,-2.04206 3.026024,-3.02567 1.078972,-1.01518 2.206199,-1.99755 3.351917,-2.96109 1.103786,-0.96849 2.259206,-1.89739 3.476214,-2.76754 1.643982,-1.28927 0.313364,-0.2957 4.786414,-2.46207 0.49227,-0.23841 1.029174,-0.38767 1.57543,-0.51697 0.946819,-0.2561 1.909017,-0.48378 2.903454,-0.57059 0.944188,-0.0159 1.9048,0.0368 2.803924,0.29287 0.982366,0.33126 1.771193,0.82252 2.344664,1.57536 0.607167,0.76904 1.146657,1.57867 1.308727,2.50098 0.12963,0.85791 0.11713,1.71339 0.0686,2.57732 -0.0501,1.288 -0.13697,2.58146 -0.47544,3.8435 -0.41604,1.47445 -0.915023,2.93514 -1.655226,4.32397 -0.892848,1.3492 -1.892838,2.64202 -2.995058,3.88206 -1.184792,1.16905 -2.475952,2.26847 -3.998118,3.14193 -2.715231,1.59164 -5.604815,2.96077 -8.529236,4.27374 -2.005217,0.84835 -4.09185,1.57881 -6.315447,1.93323 -2.108935,0.31416 -4.25546,0.46848 -6.399272,0.36647 -1.707948,-0.10096 -3.415625,-0.28086 -4.991523,-0.87385 -1.548255,-0.62334 -2.941588,-1.46662 -4.014654,-2.59289 -0.989016,-1.03461 -1.881682,-2.13759 -2.592367,-3.32001 -0.859171,-1.38636 -1.517313,-2.85025 -1.761737,-4.4033 -0.305246,-1.97826 -0.362501,-3.96995 -0.311792,-5.96299 0.01855,-2.31496 0.04758,-4.63124 0.222843,-6.94244 0.203277,-2.17576 0.527941,-4.34238 1.062609,-6.48112 0.373325,-1.60356 0.82755,-3.19112 1.531611,-4.72089 0.432945,-1.14495 0.95176,-2.26415 1.667213,-3.31216 0.777169,-1.09631 1.56025,-2.19323 2.409658,-3.25184 0.397928,-0.51972 0.809347,-1.03279 1.201753,-1.55535 0.256169,-0.34114 0.47733,-0.70024 0.746633,-1.03441 0.127855,-0.15865 0.277637,-0.30444 0.416453,-0.45667 0.825648,-0.95596 1.678785,-1.88526 2.666029,-2.7336 0.991691,-0.81179 1.891841,-1.69606 2.885257,-2.50654 0.89611,-0.73119 1.791146,-1.46428 2.737865,-2.15123 0.926746,-0.67059 1.904632,-1.28836 2.833276,-1.95698 2.133644,-1.57259 4.5211,-2.78305 7.078186,-3.87598 0.75397,-0.25392 1.529901,-0.28763 2.333156,-0.18033 0.636339,0.0877 1.257398,0.22754 1.873554,0.38472 0.594655,0.20256 1.123105,0.49602 1.560408,0.88948 0.484273,0.42947 0.823293,0.95243 1.187675,1.45347 0.327112,0.50644 0.719038,0.99044 0.937634,1.53921 0.279546,0.60638 0.483405,1.23433 0.638935,1.86998 0.621626,2.17738 0.01823,1.26125 -3.965679,2.99777 -0.01517,0.006 0.0093,-0.0273 0.01388,-0.041 0.03667,-0.60023 0.0083,-1.20143 0.02048,-1.80213 0.0012,-0.7132 5e-4,-1.42641 -0.0046,-2.13959 0.0049,-0.72812 0.009,-1.45623 0.0087,-2.18436 -5e-4,-0.79735 0.01628,-1.59506 -0.01927,-2.39209 0,0 4.164291,-1.75304 4.164291,-1.75304 z"
       inkscape:connector-curvature="0" />
    <path
       style="fill:#916f6f;stroke-width:0.26726952"
       d="m 120.64473,218.72585 c -1.51987,-0.25311 -4.13892,-1.23614 -9.41427,-3.53355 -3.37792,-1.47108 -9.81144,-3.73076 -11.550887,-4.05709 -0.830876,-0.15587 -1.332177,0.0377 -4.118813,1.59043 -3.968394,2.2112 -5.876512,2.82597 -9.361857,3.01629 -2.655942,0.14502 -2.729517,0.13326 -3.407686,-0.54491 -0.591163,-0.59117 -0.693135,-0.92783 -0.693135,-2.2884 0,-2.06264 0.652228,-2.87245 3.412734,-4.23726 1.984189,-0.98099 2.125834,-1.00958 5.453119,-1.10064 2.731795,-0.0748 4.011265,0.025 6.38784,0.49824 l 2.971825,0.59175 1.20319,-1.16642 c 2.77728,-2.69243 5.66484,-6.87085 8.09556,-11.71462 2.5429,-5.06732 3.14491,-6.86209 4.38322,-13.06771 1.0569,-5.29654 1.30572,-6.15398 2.52881,-8.71441 3.72549,-7.79898 8.9385,-14.73139 12.38651,-16.47194 1.82085,-0.91916 2.79678,-0.97067 4.25883,-0.22479 1.74052,0.88795 2.17736,2.20196 2.32008,6.97866 l 0.11719,3.92197 -1.60725,0.81134 -1.60725,0.81133 -0.11204,-3.9315 c -0.0811,-2.84435 -0.2324,-4.20703 -0.54732,-4.92791 -0.45416,-1.0396 -1.82113,-2.07519 -2.73925,-2.07519 -1.26108,0 -6.79785,8.25313 -9.48901,14.14435 -0.89135,1.95126 -1.35135,3.51985 -2.03783,6.94901 -0.48763,2.43589 -0.88989,4.63026 -0.8939,4.87638 -0.006,0.3552 0.50533,0.17762 2.47833,-0.86106 2.93803,-1.54673 5.34507,-2.12612 8.82399,-2.12401 2.85686,0.002 4.24233,0.32086 5.49331,1.2653 l 0.90039,0.67975 1.1781,-0.57236 1.1781,-0.57236 -0.074,3.92376 -0.074,3.92377 -1.46998,0.87667 c -0.80849,0.48218 -1.56019,0.88137 -1.67044,0.88709 -0.11025,0.006 -0.20045,-0.73339 -0.20045,-1.64247 0,-1.12876 -0.17659,-2.01766 -0.55692,-2.80331 -0.68887,-1.42301 -2.66231,-3.19849 -3.95387,-3.55725 -1.4802,-0.41115 -6.2393,-0.32562 -8.32911,0.1497 -1.57617,0.3585 -1.98682,0.5771 -2.74253,1.45998 -1.10111,1.28639 -2.08485,4.11413 -2.98231,8.57257 -0.54124,2.68884 -0.67866,4.15943 -0.67866,7.26259 0,3.68228 3.20423,10.48097 3.79434,11.19592 0.34298,0.41553 -0.60974,-1.30374 -0.20182,0.0192 0.61377,1.99061 -0.6785,-0.83274 0.20182,-0.0192 1.4634,1.35232 2.40577,1.74542 5.32008,2.2192 1.38149,0.22459 3.11316,0.5209 3.84815,0.65847 2.55024,0.47734 2.68367,0.43359 3.82783,-1.25481 1.36935,-2.02072 2.1221,-3.52789 2.89081,-5.78798 0.69911,-2.05547 0.80525,-3.4266 0.29718,-3.83899 -0.60768,-0.49325 -4.30644,-1.34868 -6.61492,-1.52987 -1.24948,-0.0981 -2.99342,-0.34726 -3.87541,-0.55375 -2.50344,-0.58613 -2.45239,-0.61112 -2.65714,1.30077 l -0.18036,1.68413 -1.58803,0.87302 -1.58803,0.87303 v -0.73119 c 0,-0.67094 0.38775,-3.40905 0.68673,-4.84937 0.13035,-0.62796 2.84067,-2.20644 3.78854,-2.20644 0.26481,0 1.62129,0.28716 3.0144,0.63812 1.39312,0.35097 3.92922,0.77258 5.6358,0.93692 3.19014,0.3072 5.83337,1.02455 6.71497,1.82238 0.5989,0.542 0.48548,1.56356 -0.49299,4.44039 -0.74624,2.19405 -1.78907,4.10905 -3.57395,6.56304 -1.39671,1.9203 -3.82133,3.62237 -5.6094,3.93777 -0.51882,0.0915 -1.59999,0.33253 -2.40262,0.53559 -1.61204,0.40783 -2.40122,0.42045 -4.49441,0.0719 z m -27.873647,-5.48451 c 1.804141,-0.46281 4.046712,-1.51991 4.658508,-2.19594 0.43216,-0.47753 0.365183,-0.51388 -1.761656,-0.95614 -2.594431,-0.53949 -7.354222,-0.83891 -9.121892,-0.57383 l -1.240727,0.18606 v 1.29811 c 0,1.71846 0.18837,2.13132 1.175896,2.57729 0.963647,0.43518 3.894911,0.2788 6.289871,-0.33555 z m 20.249957,-0.46797 c -0.30942,-1.02415 0.35369,0.42626 0,0 -0.63429,-0.76444 -2.35683,-5.38827 -2.27473,-10.11548 0.0571,-3.28439 -7.9e-4,-4.64911 -0.18402,-4.33658 -1.26345,2.15585 -3.94246,5.53367 -6.21937,7.84167 -1.50967,1.53028 -2.71008,2.81712 -2.66756,2.85963 0.0425,0.0425 1.81892,0.62416 3.94757,1.29253 2.12865,0.66838 4.65204,1.50584 5.60753,1.86103 0.95549,0.35518 1.76125,0.62392 1.79058,0.5972 0.0293,-0.0267 0.30942,1.02416 0,0 z"
       id="path3865"
       inkscape:connector-curvature="0"
       sodipodi:nodetypes="csccccscccccscsscccccccscccccccccccccscccccscscsccccccscccscscccscccccccsscscccccccccccc" />
    <path
       style="fill:#ff6600;stroke-width:0.26726952"
       d="m 34.600427,201.37332 c -2.32236,-0.29024 -5.95713,-1.18991 -7.42623,-1.83813 -0.588,-0.25944 -3.38629,-1.86618 -6.21844,-3.57053 -6.14903,-3.7004 -7.36113,-4.20298 -10.13645,-4.20298 -1.9569201,0 -2.0187201,-0.019 -1.5927101,-0.48975 0.24377,-0.26936 1.2546501,-0.95743 2.2464001,-1.52904 5.01493,-2.89044 7.5569,-7.67159 8.51827,-16.02191 1.06316,-9.23439 2.00614,-13.32962 4.01484,-17.43587 1.48485,-3.03536 3.4078,-4.92034 7.09203,-6.95197 3.74999,-2.06788 6.02605,-2.74203 9.21939,-2.73069 3.12339,0.0111 6.44616,0.55568 7.64254,1.25257 0.86813,0.5057 1.890494,2.04107 2.185173,3.28169 0.141507,0.59575 -0.0073,0.75679 -1.372913,1.48583 l -1.53163,0.81766 -0.72497,-1.53295 c -0.39873,-0.84312 -1.01801,-1.72496 -1.37619,-1.95964 -1.08133,-0.70852 -4.15283,-1.20678 -7.4694,-1.21169 -5.78143,-0.009 -8.24436,1.43164 -10.54357,6.16537 -2.04019,4.20043 -2.82902,7.64701 -3.94372,17.23099 -0.94566,8.13061 -3.1024,12.42914 -8.06405,16.07224 -0.93994,0.69015 -1.70826,1.32183 -1.70737,1.40373 7.9e-4,0.0819 0.64367,0.15785 1.42842,0.16878 1.69452,0.0236 3.27285,0.76942 9.18592,4.34065 2.17263,1.31217 4.5829,2.70464 5.35616,3.09438 2.33109,1.17492 5.98528,2.00968 10.25899,2.34357 5.09291,0.39788 8.34073,0.0702 10.726772,-1.08224 0.914416,-0.44166 1.499772,-0.80949 1.300797,-0.8174 -0.219929,-0.009 -0.02368,-0.39944 0.500518,-0.99648 1.196414,-1.36264 2.564244,-4.32994 3.094379,-6.71279 0.77181,-3.46916 0.1213,-8.18525 -1.347656,-9.77028 -0.577302,-0.62292 -0.86193,-0.70908 -2.340427,-0.70849 -0.954283,2.7e-4 -2.773573,0.29279 -4.201093,0.67523 -1.38484,0.371 -2.61761,0.64131 -2.73949,0.60068 -0.12187,-0.0406 0.20783,-0.41651 0.73268,-0.8353 1.30818,-1.04381 5.996646,-2.33452 8.710488,-2.39795 1.841109,-0.043 2.118318,0.0184 2.748547,0.60858 1.832258,1.71596 2.500072,7.87257 1.259883,11.61489 -1.492737,4.5044 -3.143396,6.58537 -7.081967,8.9282 -4.281761,2.54696 -5.120261,2.78331 -10.199411,2.87491 -2.35197,0.0424 -5.144,-0.0313 -6.20451,-0.16387 z"
       id="path3869"
       inkscape:connector-curvature="0" />
  </g>
</svg>
