<?xml version="1.0" encoding="UTF-8" standalone="no"?>
<!-- Created with Inkscape (http://www.inkscape.org/) -->

<svg
   xmlns:dc="http://purl.org/dc/elements/1.1/"
   xmlns:cc="http://creativecommons.org/ns#"
   xmlns:rdf="http://www.w3.org/1999/02/22-rdf-syntax-ns#"
   xmlns:svg="http://www.w3.org/2000/svg"
   xmlns="http://www.w3.org/2000/svg"
   xmlns:xlink="http://www.w3.org/1999/xlink"
   xmlns:sodipodi="http://sodipodi.sourceforge.net/DTD/sodipodi-0.dtd"
   xmlns:inkscape="http://www.inkscape.org/namespaces/inkscape"
   width="210mm"
   height="297mm"
   viewBox="0 0 210 297"
   version="1.1"
   id="svg3729"
   inkscape:version="0.92.4 (5da689c313, 2019-01-14)"
   sodipodi:docname="dibujo.svg">
  <defs
     id="defs3723">
    <linearGradient
       inkscape:collect="always"
       id="linearGradient114">
      <stop
         style="stop-color:#0000ff;stop-opacity:1;"
         offset="0"
         id="stop110" />
      <stop
         style="stop-color:#0000ff;stop-opacity:0;"
         offset="1"
         id="stop112" />
    </linearGradient>
    <inkscape:perspective
       sodipodi:type="inkscape:persp3d"
       inkscape:vp_x="0 : 137.99384 : 1"
       inkscape:vp_y="0 : 779.93446 : 0"
       inkscape:vp_z="210 : 137.99384 : 1"
       inkscape:persp3d-origin="105 : 99.387088 : 1"
       id="perspective3743" />
    <linearGradient
       inkscape:collect="always"
       xlink:href="#linearGradient114"
       id="linearGradient116"
       x1="237.36905"
       y1="227.45238"
       x2="319.0119"
       y2="227.45238"
       gradientUnits="userSpaceOnUse"
       gradientTransform="translate(-211.66667,-181.42857)" />
  </defs>
  <sodipodi:namedview
     id="base"
     pagecolor="#ffffff"
     bordercolor="#666666"
     borderopacity="1.0"
     inkscape:pageopacity="0.0"
     inkscape:pageshadow="2"
     inkscape:zoom="0.7"
     inkscape:cx="-499.58529"
     inkscape:cy="378.38037"
     inkscape:document-units="mm"
     inkscape:current-layer="layer1"
     showgrid="false"
     inkscape:window-width="1366"
     inkscape:window-height="705"
     inkscape:window-x="-8"
     inkscape:window-y="-8"
     inkscape:window-maximized="1" />
  <metadata
     id="metadata3726">
    <rdf:RDF>
      <cc:Work
         rdf:about="">
        <dc:format>image/svg+xml</dc:format>
        <dc:type
           rdf:resource="http://purl.org/dc/dcmitype/StillImage" />
        <dc:title />
      </cc:Work>
    </rdf:RDF>
  </metadata>
  <g
     inkscape:label="Capa 1"
     inkscape:groupmode="layer"
     id="layer1">
    <flowRoot
       xml:space="preserve"
       id="flowRoot3781"
       style="fill:black;fill-opacity:1;stroke:none;font-family:sans-serif;font-style:normal;font-weight:normal;font-size:40px;line-height:1.25;letter-spacing:0px;word-spacing:0px"><flowRegion
         id="flowRegion3783"><rect
           id="rect3785"
           width="39.39595"
           height="40.406101"
           x="337.39096"
           y="633.60583" /></flowRegion><flowPara
         id="flowPara3787" /></flowRoot>    <flowRoot
       xml:space="preserve"
       id="flowRoot3789"
       style="fill:black;fill-opacity:1;stroke:none;font-family:sans-serif;font-style:normal;font-weight:normal;font-size:40px;line-height:1.25;letter-spacing:0px;word-spacing:0px"><flowRegion
         id="flowRegion3791"><rect
           id="rect3793"
           width="26.263966"
           height="54.548237"
           x="251.52798"
           y="636.63629" /></flowRegion><flowPara
         id="flowPara3795" /></flowRoot>    <flowRoot
       xml:space="preserve"
       id="flowRoot3797"
       style="fill:black;fill-opacity:1;stroke:none;font-family:sans-serif;font-style:normal;font-weight:normal;font-size:40px;line-height:1.25;letter-spacing:0px;word-spacing:0px"><flowRegion
         id="flowRegion3799"><rect
           id="rect3801"
           width="6.0609155"
           height="41.416256"
           x="361.63461"
           y="653.8089" /></flowRegion><flowPara
         id="flowPara3803" /></flowRoot>    <path
       style="fill:#2b0000;stroke-width:0.26458332"
       id="path3831"
       d="m 48.442625,218.88022 c -0.276264,-0.97001 -0.716822,-1.89556 -1.173879,-2.79323 -0.404776,-0.7126 -0.982335,-0.95372 -1.715564,-1.21358 -0.872379,-0.39843 -1.828795,-0.47806 -2.761104,-0.63571 -0.94007,-0.15961 -1.891737,-0.22382 -2.843411,-0.25834 -0.800642,-0.0193 -1.601626,-0.0184 -2.402448,-0.0164 -0.843913,-0.0569 -1.661571,0.11643 -2.466023,0.35375 -1.053999,0.36755 -2.105197,0.72967 -3.143382,1.14213 -1.215454,0.61595 -3.555445,1.98661 1.835295,-1.09054 0.162923,-0.093 -0.325112,0.18744 -0.484084,0.28703 -0.405519,0.25408 -0.559541,0.37644 -0.953746,0.66227 -1.010132,0.7046 -1.810057,1.63501 -2.537153,2.61737 -0.868233,1.29205 -1.505162,2.71611 -2.122162,4.13936 -0.753179,1.67146 -1.219716,3.44992 -1.61593,5.23397 -0.382555,1.80994 -0.703167,3.63293 -0.911055,5.47133 -0.09556,1.47065 -0.218385,2.93628 -0.403315,4.39849 -0.155544,1.49447 -0.358826,2.98107 -0.726919,4.43862 -0.371015,1.41619 -0.775481,2.82503 -1.254456,4.20871 -0.427305,1.26924 -1.104715,2.41521 -1.860272,3.5116 -0.814067,1.12501 -1.792211,2.11173 -2.838532,3.01889 -0.711605,0.62536 -1.48349,1.17189 -2.279166,1.68354 -1.659392,1.54342 -3.235497,1.88787 -5.044406,2.6578 -0.2301,0.17439 -0.51623,0.23739 -0.7703395,0.35959 -0.0581,0.0279 -0.21527,0.14164 -0.1614,0.10631 3.3796435,-2.21602 2.0442815,-1.86067 3.4926395,-2.22592 0.939871,0.0176 1.871263,-0.13928 2.813153,-0.12506 1.40697,-0.0382 2.646939,0.58857 3.862983,1.21941 1.985259,1.03036 3.874259,2.23804 5.778563,3.40964 1.574012,0.93508 3.125947,1.89618 4.753142,2.73587 1.852885,1.06486 3.926488,1.53989 5.993654,1.98339 2.903513,0.56746 5.862418,0.64955 8.810762,0.63492 1.730833,-0.0491 3.491458,-0.13231 5.157663,-0.65215 0.736394,-0.22975 1.301853,-0.5151 2.000441,-0.83469 0.30322,-0.17811 1.220668,-0.69848 0.909664,-0.53434 -3.417745,1.80386 -2.891825,1.78332 -1.654644,0.73673 0.705808,-0.59708 1.317562,-1.2727 1.915269,-1.9741 1.320699,-1.66079 2.09442,-3.61954 2.705896,-5.62856 0.385644,-1.47533 0.617069,-2.99839 0.562176,-4.52705 -0.03137,-0.87364 -0.127823,-1.33058 -0.260884,-2.19152 -0.320715,-1.20924 -0.633704,-2.83488 -1.497777,-3.80743 -0.101352,-0.11407 -0.233045,-0.19705 -0.349568,-0.29557 -1.182872,-0.58002 -2.514862,-0.3959 -3.761539,-0.16597 -1.596633,0.27022 -3.142768,0.75382 -4.690856,1.21498 -0.598699,0.1508 -1.191895,0.31517 -1.785921,0.483 0,0 3.120541,-2.39898 3.120541,-2.39898 v 0 c 0.579315,-0.15802 1.164095,-0.29381 1.741924,-0.45729 1.542761,-0.45247 3.096487,-0.8772 4.682646,-1.15075 1.356188,-0.21093 2.807927,-0.36287 4.019856,0.41797 0.129207,0.12817 0.274963,0.24159 0.387623,0.38453 0.828135,1.05071 1.145516,2.74739 1.484273,4.00149 0.137575,0.85722 0.246515,1.37829 0.284091,2.24968 0.06703,1.55453 -0.141994,3.114 -0.512091,4.62064 -0.588396,2.03663 -1.328621,4.03091 -2.601245,5.75078 -0.683917,0.8438 -1.747071,2.10023 -2.656827,2.67765 -1.342091,0.85183 -2.720972,1.6444 -4.091141,2.45029 -0.303231,0.17835 -0.618892,0.33467 -0.928336,0.502 -0.799745,0.3415 -1.193024,0.54142 -2.035344,0.77272 -1.674498,0.45981 -3.423065,0.49435 -5.146267,0.53686 -2.978161,-0.002 -5.967386,-0.0995 -8.900036,-0.66853 -2.112412,-0.44542 -4.222065,-0.95005 -6.120484,-2.0213 -1.624256,-0.84771 -3.157517,-1.84217 -4.725623,-2.78803 -1.894305,-1.1776 -3.775802,-2.39522 -5.79076,-3.35886 -1.216385,-0.574 -2.441245,-1.10788 -3.818105,-1.03139 -0.971169,0.0268 -1.946952,0.21102 -2.914992,0.0825 -0.1048395,-0.0509 -0.4020795,-0.0758 -0.3145195,-0.15272 1.4831875,-1.30293 2.5218995,-2.12392 4.1222425,-2.78402 1.453478,-0.52805 4.121941,-2.03825 -1.736434,1.21435 0.807329,-0.51766 1.625603,-1.01833 2.347095,-1.65613 1.066393,-0.87234 2.053503,-1.83611 2.894264,-2.9315 0.749477,-1.06931 1.452266,-2.16731 1.884598,-3.4101 0.505761,-1.37404 0.935006,-2.77562 1.303287,-4.19268 0.376108,-1.43796 0.58179,-2.90847 0.731282,-4.38636 0.182261,-1.46421 0.338722,-2.9292 0.42278,-4.40299 0.21113,-1.85663 0.554138,-3.69419 0.931913,-5.52355 0.372811,-1.79795 0.803008,-3.599 1.54773,-5.28462 0.615445,-1.43508 1.233657,-2.87343 2.064116,-4.20167 0.689776,-1.02066 1.478462,-1.98779 2.47574,-2.72502 1.936192,-1.47068 4.078052,-2.67912 6.283158,-3.70042 1.052357,-0.40446 2.114786,-0.78351 3.189796,-1.12289 0.836427,-0.20057 1.673836,-0.33576 2.53787,-0.27962 0.800968,0.002 1.602253,5.3e-4 2.402599,0.037 0.958781,0.047 1.914152,0.14354 2.861368,0.30208 0.957848,0.14768 1.918137,0.29993 2.814823,0.68922 0.785013,0.29537 1.472999,0.69488 1.87007,1.47041 0.440904,0.9317 0.861978,1.87742 1.245367,2.83368 0,0 -3.480213,1.89704 -3.480213,1.89704 z"
       inkscape:connector-curvature="0" />
    <path
       style="fill:#2b0000;stroke-width:0.27437565"
       id="path3835"
       d="m -11.57739,84.219417 c 0.03339,0.79482 0.01778,1.59027 0.01826,2.38539 2.56e-4,0.71878 -0.0038,1.43754 -0.0085,2.1563 0.0047,0.70768 0.0057,1.41534 0.0047,2.12304 -0.01277,0.58921 0.01684,1.17914 -0.01939,1.76788 4.0010184,6.29563 3.8230644,1.79414 4.0796414,0.6062 0.127731,-0.6141 0.340537,-1.20954 0.589924,-1.79398 0.200214,-0.52772 0.552216,-0.99604 0.854902,-1.48188 0.329222,-0.45769 0.60577,-0.97019 1.064861,-1.34252 0.380751,-0.35234 0.839122,-0.5995 1.370942,-0.73618 0.569471,-0.13164 1.131866,-0.25951 1.719615,-0.31879 0.44735,-0.0246 0.93161403,-0.0665 1.37078103,0.0446 0.139802,0.0354 0.549785,0.24778 0.66359,0.30423 -6.57591303,-3.51074 -2.21822003,-1.01117 -0.766223,0.0539 0.869376,0.67076 1.78945897,1.28887 2.67824697,1.93971 0.899308,0.6712 1.752507,1.38649 2.599084,2.10659 0.948548,0.79969 1.827905,1.65761 2.746076,2.4827 0.928843,0.82658 1.767852,1.71525 2.543289,2.65117 0.8135416,0.96545 1.5163346,1.99777 2.2606106,3.004073 0.807715,1.04243 1.543154,2.12594 2.280032,3.20662 0.684534,1.0113 1.191238,2.09777 1.618448,3.20659 0.682103,1.51315 1.149452,3.07945 1.536447,4.66547 0.529256,2.11045 0.859623,4.24961 1.07188,6.39962 0.189703,2.2779 0.201377,4.56297 0.21149,6.84561 0.0386,1.95395 -0.02138,3.90627 -0.308561,5.84538 -0.235633,1.49127 -0.832217,2.90049 -1.634785,4.22815 -0.664527,1.15002 -1.500111,2.21524 -2.420667,3.2215 -0.976966,1.07703 -2.245171,1.8748 -3.682202,2.42522 -1.4663476,0.54384 -3.0512976,0.675 -4.6256416,0.75518 -1.995557,0.0854 -3.988796,-0.0677 -5.94377797,-0.40978 -2.09501203,-0.38151 -4.04441203,-1.14865 -5.92159503,-2.01636 -2.60319,-1.29781 1.866313,0.93075 2.088597,1.03829 0.250051,0.12096 -0.487801,-0.26012 -0.72982,-0.39277 -0.703426,-0.38554 -1.394876,-0.7852 -2.08066,-1.19369 -1.449206,-0.84183 -2.686307,-1.89892 -3.8331964,-3.02872 -1.066827,-1.19087 -2.01284,-2.45674 -2.859654,-3.77201 -0.747794,-1.32956 -1.21765,-2.75634 -1.612828,-4.18964 -0.326961,-1.22308 -0.413048,-2.47689 -0.458343,-3.72723 -0.02025,-0.83059 -0.02819,-1.65988 0.07388,-2.48637 0.111053,-0.8629 0.58369,-1.61728 1.123201,-2.33207 0.505483,-0.6852 1.211379,-1.09576 2.0861,-1.34746 0.828319,-0.17743 1.699199,-0.23704 2.5477164,-0.16082 0.915588,0.14044 1.792939,0.38727 2.672788,0.63894 0.145724,0.037 0.294134,0.0669 0.437181,0.1111 0.299725,0.0927 0.412158,0.15804 0.680467,0.29566 0.111194,0.0571 0.444417,0.22862 0.331993,0.17343 -3.472717,-1.70542 -4.399412,-2.35956 -2.930416,-1.36881 1.181258,0.84792 2.279881,1.7754 3.351534,2.72477 1.08098,0.95199 2.135737,1.92704 3.169492,2.91748 0.99262203,0.9622 1.92703703,1.96806 2.858594,2.97449 0.727919,0.78722 1.456548,1.57448 2.171941,2.37027 0.426188,0.45616 0.81973,0.93582 1.246211,1.3912 1.819059,1.66383 3.348459,2.15838 5.5121596,2.18551 1.032724,-0.003 2.065391,-0.0113 3.098144,-0.0108 0.569764,0.0333 1.125187,-0.0166 1.686674,-0.0905 0,0 -3.593911,-2.19411 -3.593911,-2.19411 v 0 c -0.541138,0.0579 -1.082494,0.072 -1.6278696,0.0647 -1.03718,0.006 -2.075013,0.0154 -3.11171,-0.0187 -0.32312,-0.0188 -0.658718,-0.0273 -0.972425,-0.10605 -0.08845,-0.0222 -0.336762,-0.12707 -0.257722,-0.0862 3.274215,1.69426 4.8495716,2.29357 3.35194,1.71609 -0.25408,-0.16853 -0.365142,-0.33548 -0.549861,-0.55846 -0.233494,-0.28185 -0.552887,-0.49746 -0.760651,-0.79707 -0.706188,-0.81704 -1.484634,-1.58853 -2.208475,-2.394 -0.938748,-1.00978 -1.874553,-2.02261 -2.862653,-2.99685 -1.02072,-1.00551 -2.08709297,-1.97853 -3.17095897,-2.93289 -1.04419903,-0.95926 -2.13724103,-1.87932 -3.28853803,-2.74118 -1.555235,-1.27699 -0.296452,-0.29288 -4.528014,-2.43861 -0.465693,-0.23614 -0.973608,-0.38398 -1.4903764,-0.51205 -0.895704,-0.25366 -1.805948,-0.47917 -2.746701,-0.56515 -0.893215,-0.0158 -1.801964,0.0364 -2.652553,0.29008 -0.929325,0.3281 -1.675568,0.81468 -2.218078,1.56035 -0.57439,0.76171 -1.084754,1.56363 -1.238075,2.47716 -0.122631,0.84973 -0.110806,1.69707 -0.0649,2.55277 0.0474,1.27573 0.129575,2.55687 0.449772,3.80689 0.393579,1.4604 0.86563,2.90718 1.565869,4.28278 0.844647,1.33635 1.79065,2.61685 2.833364,3.84508 1.120826,1.15791 2.34228,2.24686 3.782272,3.112 2.5686424,1.57648 5.3022214,2.93257 8.0687594,4.23303 1.89696303,0.84027 3.870941,1.56377 5.974495,1.91482 1.995074,0.31117 4.025719,0.46402 6.05379,0.36298 1.6157416,-0.1 3.2312286,-0.27819 4.7220406,-0.86553 1.464673,-0.6174 2.782781,-1.45265 3.797918,-2.56819 0.935616,-1.02476 1.780093,-2.11723 2.452406,-3.28839 0.812795,-1.37315 1.435403,-2.8231 1.666628,-4.36135 0.288773,-1.95942 0.342923,-3.93214 0.294953,-5.90619 -0.0176,-2.29291 -0.045,-4.58713 -0.210805,-6.87631 -0.192306,-2.15504 -0.499438,-4.30102 -1.005243,-6.41939 -0.353165,-1.58828 -0.782872,-3.16072 -1.448922,-4.67592 -0.409567,-1.13404 -0.900377,-2.24258 -1.577202,-3.28061 -0.735212,-1.08587 -1.476016,-2.17234 -2.279568,-3.22087 -0.376447,-0.51477 -0.765656,-1.02295 -1.136871,-1.54053 -0.24234,-0.337893 -0.45156,-0.693573 -0.706331,-1.024563 -0.120948,-0.15714 -0.262641,-0.30154 -0.393967,-0.45232 -0.781075,-0.94685 -1.588147,-1.8673 -2.522098,-2.70756 -0.938151,-0.80406 -1.7897036,-1.6799 -2.7294916,-2.48266 -0.847731,-0.72423 -1.694441,-1.45033 -2.59005,-2.13074 -0.876717,-0.6642 -1.801804,-1.27609 -2.680319,-1.93834 -2.01845,-1.55761 -4.27701697,-2.75654 -6.696047,-3.83906 -0.713265,-0.2515 -1.447305,-0.28489 -2.207199,-0.17861 -0.601985,0.0869 -1.189516,0.22537 -1.772401,0.38105 -0.562556,0.20063 -1.062477,0.4913 -1.476168,0.88101 -0.458125,0.42538 -0.778843,0.94336 -1.12356,1.43963 -0.3094504,0.50161 -0.6802124,0.981 -0.8870104,1.52454 -0.264458,0.60061 -0.457302,1.22258 -0.604436,1.85217 -0.58807,2.15664 -0.01722,1.24924 3.7515744,2.96922 0.01438,0.006 -0.0085,-0.027 -0.01315,-0.0406 -0.03472,-0.59452 -0.0076,-1.18999 -0.01939,-1.78497 -9.46e-4,-0.7064 -4.73e-4,-1.41282 0.0047,-2.11921 -0.0047,-0.72118 -0.0085,-1.44236 -0.0085,-2.16355 4.73e-4,-0.78975 -0.01542,-1.57987 0.01826,-2.3693 0,0 -3.9394714,-1.73635 -3.9394714,-1.73635 z"
       inkscape:connector-curvature="0" />
    <path
       style="fill:#916f6f;stroke-width:0.26726952"
       d="m 120.64473,218.72585 c -1.51987,-0.25311 -4.13892,-1.23614 -9.41427,-3.53355 -3.37792,-1.47108 -9.81144,-3.73076 -11.550887,-4.05709 -0.830876,-0.15587 -1.332177,0.0377 -4.118813,1.59043 -3.968394,2.2112 -5.876512,2.82597 -9.361857,3.01629 -2.655942,0.14502 -2.729517,0.13326 -3.407686,-0.54491 -0.591163,-0.59117 -0.693135,-0.92783 -0.693135,-2.2884 0,-2.06264 0.652228,-2.87245 3.412734,-4.23726 1.984189,-0.98099 2.125834,-1.00958 5.453119,-1.10064 2.731795,-0.0748 4.011265,0.025 6.38784,0.49824 l 2.971825,0.59175 1.20319,-1.16642 c 2.77728,-2.69243 5.66484,-6.87085 8.09556,-11.71462 2.5429,-5.06732 3.14491,-6.86209 4.38322,-13.06771 1.0569,-5.29654 1.30572,-6.15398 2.52881,-8.71441 3.72549,-7.79898 8.9385,-14.73139 12.38651,-16.47194 1.82085,-0.91916 2.79678,-0.97067 4.25883,-0.22479 1.74052,0.88795 2.17736,2.20196 2.32008,6.97866 l 0.11719,3.92197 -1.60725,0.81134 -1.60725,0.81133 -0.11204,-3.9315 c -0.0811,-2.84435 -0.2324,-4.20703 -0.54732,-4.92791 -0.45416,-1.0396 -1.82113,-2.07519 -2.73925,-2.07519 -1.26108,0 -6.79785,8.25313 -9.48901,14.14435 -0.89135,1.95126 -1.35135,3.51985 -2.03783,6.94901 -0.48763,2.43589 -0.88989,4.63026 -0.8939,4.87638 -0.006,0.3552 0.50533,0.17762 2.47833,-0.86106 2.93803,-1.54673 5.34507,-2.12612 8.82399,-2.12401 2.85686,0.002 4.24233,0.32086 5.49331,1.2653 l 0.90039,0.67975 1.1781,-0.57236 1.1781,-0.57236 -0.074,3.92376 -0.074,3.92377 -1.46998,0.87667 c -0.80849,0.48218 -1.56019,0.88137 -1.67044,0.88709 -0.11025,0.006 -0.20045,-0.73339 -0.20045,-1.64247 0,-1.12876 -0.17659,-2.01766 -0.55692,-2.80331 -0.68887,-1.42301 -2.66231,-3.19849 -3.95387,-3.55725 -1.4802,-0.41115 -6.2393,-0.32562 -8.32911,0.1497 -1.57617,0.3585 -1.98682,0.5771 -2.74253,1.45998 -1.10111,1.28639 -2.08485,4.11413 -2.98231,8.57257 -0.54124,2.68884 -0.67866,4.15943 -0.67866,7.26259 0,3.68228 3.20423,10.48097 3.79434,11.19592 0.34298,0.41553 -0.60974,-1.30374 -0.20182,0.0192 0.61377,1.99061 -0.6785,-0.83274 0.20182,-0.0192 1.4634,1.35232 2.40577,1.74542 5.32008,2.2192 1.38149,0.22459 3.11316,0.5209 3.84815,0.65847 2.55024,0.47734 2.68367,0.43359 3.82783,-1.25481 1.36935,-2.02072 2.1221,-3.52789 2.89081,-5.78798 0.69911,-2.05547 0.80525,-3.4266 0.29718,-3.83899 -0.60768,-0.49325 -4.30644,-1.34868 -6.61492,-1.52987 -1.24948,-0.0981 -2.99342,-0.34726 -3.87541,-0.55375 -2.50344,-0.58613 -2.45239,-0.61112 -2.65714,1.30077 l -0.18036,1.68413 -1.58803,0.87302 -1.58803,0.87303 v -0.73119 c 0,-0.67094 0.38775,-3.40905 0.68673,-4.84937 0.13035,-0.62796 2.84067,-2.20644 3.78854,-2.20644 0.26481,0 1.62129,0.28716 3.0144,0.63812 1.39312,0.35097 3.92922,0.77258 5.6358,0.93692 3.19014,0.3072 5.83337,1.02455 6.71497,1.82238 0.5989,0.542 0.48548,1.56356 -0.49299,4.44039 -0.74624,2.19405 -1.78907,4.10905 -3.57395,6.56304 -1.39671,1.9203 -3.82133,3.62237 -5.6094,3.93777 -0.51882,0.0915 -1.59999,0.33253 -2.40262,0.53559 -1.61204,0.40783 -2.40122,0.42045 -4.49441,0.0719 z m -27.873647,-5.48451 c 1.804141,-0.46281 4.046712,-1.51991 4.658508,-2.19594 0.43216,-0.47753 0.365183,-0.51388 -1.761656,-0.95614 -2.594431,-0.53949 -7.354222,-0.83891 -9.121892,-0.57383 l -1.240727,0.18606 v 1.29811 c 0,1.71846 0.18837,2.13132 1.175896,2.57729 0.963647,0.43518 3.894911,0.2788 6.289871,-0.33555 z m 20.249957,-0.46797 c -0.30942,-1.02415 0.35369,0.42626 0,0 -0.63429,-0.76444 -2.35683,-5.38827 -2.27473,-10.11548 0.0571,-3.28439 -7.9e-4,-4.64911 -0.18402,-4.33658 -1.26345,2.15585 -3.94246,5.53367 -6.21937,7.84167 -1.50967,1.53028 -2.71008,2.81712 -2.66756,2.85963 0.0425,0.0425 1.81892,0.62416 3.94757,1.29253 2.12865,0.66838 4.65204,1.50584 5.60753,1.86103 0.95549,0.35518 1.76125,0.62392 1.79058,0.5972 0.0293,-0.0267 0.30942,1.02416 0,0 z"
       id="path3865"
       inkscape:connector-curvature="0"
       sodipodi:nodetypes="csccccscccccscsscccccccscccccccccccccscccccscscsccccccscccscscccscccccccsscscccccccccccc" />
    <path
       style="fill:#ff6600;stroke-width:0.26726952"
       d="m 37.624236,155.6382 c -2.32236,-0.29024 -5.95713,-1.18991 -7.42623,-1.83813 -0.588,-0.25944 -3.38629,-1.86618 -6.21844,-3.57053 -6.14903,-3.7004 -7.36113,-4.20298 -10.13645,-4.20298 -1.95692,0 -2.01872,-0.019 -1.59271,-0.48975 0.24377,-0.26936 1.25465,-0.95743 2.2464,-1.52904 5.01493,-2.89044 7.5569,-7.67159 8.51827,-16.02191 1.06316,-9.23439 2.00614,-13.32962 4.01484,-17.43587 1.48485,-3.03536 3.4078,-4.92034 7.09203,-6.95197 3.74999,-2.06788 6.02605,-2.74203 9.21939,-2.73069 3.12339,0.0111 6.44616,0.55568 7.64254,1.25257 0.86813,0.5057 1.890494,2.04107 2.185173,3.28169 0.141507,0.59575 -0.0073,0.75679 -1.372913,1.48583 l -1.53163,0.81766 -0.72497,-1.53295 c -0.39873,-0.84312 -1.01801,-1.72496 -1.37619,-1.95964 -1.08133,-0.70852 -4.15283,-1.20678 -7.4694,-1.21169 -5.78143,-0.009 -8.24436,1.43164 -10.54357,6.16537 -2.04019,4.20043 -2.82902,7.64701 -3.94372,17.23099 -0.94566,8.13061 -3.1024,12.42914 -8.06405,16.07224 -0.93994,0.69015 -1.70826,1.32183 -1.70737,1.40373 7.9e-4,0.0819 0.64367,0.15785 1.42842,0.16878 1.69452,0.0236 3.27285,0.76942 9.18592,4.34065 2.17263,1.31217 4.5829,2.70464 5.35616,3.09438 2.33109,1.17492 5.98528,2.00968 10.25899,2.34357 5.09291,0.39788 8.34073,0.0702 10.726772,-1.08224 0.914416,-0.44166 1.499772,-0.80949 1.300797,-0.8174 -0.219929,-0.009 -0.02368,-0.39944 0.500518,-0.99648 1.196414,-1.36264 2.564244,-4.32994 3.094379,-6.71279 0.77181,-3.46916 0.1213,-8.18525 -1.347656,-9.77028 -0.577302,-0.62292 -0.86193,-0.70908 -2.340427,-0.70849 -0.954283,2.7e-4 -2.773573,0.29279 -4.201093,0.67523 -1.38484,0.371 -2.61761,0.64131 -2.73949,0.60068 -0.12187,-0.0406 0.20783,-0.41651 0.73268,-0.8353 1.30818,-1.04381 5.996646,-2.33452 8.710488,-2.39795 1.841109,-0.043 2.118318,0.0184 2.748547,0.60858 1.832258,1.71596 2.500072,7.87257 1.259883,11.61489 -1.492737,4.5044 -3.143396,6.58537 -7.081967,8.9282 -4.281761,2.54696 -5.120261,2.78331 -10.199411,2.87491 -2.35197,0.0424 -5.144,-0.0313 -6.20451,-0.16387 z"
       id="path3869"
       inkscape:connector-curvature="0" />
    <path
       style="fill:url(#linearGradient116);fill-opacity:1;stroke-width:0.1889881"
       d="m 47.642184,71.066249 c -2.49289,-0.40526 -5.35345,-1.44497 -9.024,-3.27985 -5.93032,-2.96456 -8.24027,-4.67525 -10.60843,-7.85633 -2.23786,-3.00604 -3.17132,-5.77164 -3.3258,-9.85345 -0.091,-2.40491 -0.0635,-2.74074 0.29024,-3.54038 0.56546,-1.27831 0.83206,-2.42884 1.8019,-2.9972 1.13877,-0.66736 2.43392,-1.87647 4.42732,-1.40574 1.13177,-0.79714 5.51962,0.84425 7.70775,2.40245 1.93862,1.38053 6.76515,5.86722 9.58976,9.96718 l 1.89358,1.69664 1.3638,0.90489 c 1.31838,0.003 7.5034,1.70562 8.90585,1.7582 0,0 0.57194,0.39341 1.66088,-0.67444 0.32387,-0.57761 -0.13031,-8.81249 -0.15602,-10.17424 0,0 0.22521,-2.77012 -0.59007,-6.82026 -1.02162,-5.0752 -2.41033,-8.16487 -5.68623,-12.65097 -3.16181,-4.32986 -6.9553,-8.00252 -12.07735,-11.69263 -1.47195,-1.06044 -1.53687,-1.08621 -2.45684,-0.97504 -2.08792,0.2523 -2.82005,0.68833 -3.91679,2.33269 -0.86872,1.30249 -1.39554,2.65175 -1.64838,4.2217 -0.10421,0.64713 -0.32141,1.30854 -0.48266,1.46978 -0.26295,0.26296 -0.34624,0.2636 -0.80794,0.006 -0.28312,-0.15783 -0.96123,-0.8799 -1.50691,-1.6046 l -0.99215,-1.31765 -4e-5,-4.12323 c -5e-5,-4.75156 -0.27197,-4.35568 2.2137,-3.22292 l 1.42912,0.65127 1.41005,-0.31371 c 1.95356,-0.43463 2.72701,-0.2806 5.31465,1.0584 5.9559,3.08193 13.08625,9.23878 16.95903,14.64364 2.67945,3.73945 2.6266,3.65832 3.42854,5.26268 l 0.72631,1.45305 0.33096,-2.09549 c 0.77179,-4.88669 2.37479,-9.62181 4.17594,-12.33536 1.75578,-2.64519 5.896,-5.41335 10.48622,-7.0111 1.88695,-0.65681 2.0228,-0.67629 4.71225,-0.67555 4.43986,10e-4 7.46033,0.65412 8.58442,1.85559 0.26038,0.2783 0.73552,1.10132 1.05587,1.82892 l 0.58245,1.32292 -0.40528,0.28348 c -1.07748,0.75367 -2.98493,1.67206 -2.98493,1.43716 0,-0.43192 -1.07782,-2.65072 -1.45223,-2.98955 -1.14119,-1.03277 -4.30393,-1.65865 -8.37515,-1.65739 -2.41355,7.9e-4 -2.65059,0.0355 -4.38927,0.64293 -1.01087,0.35318 -2.07393,0.82374 -2.36236,1.04568 -0.94984,0.73091 -2.31478,2.53444 -3.15364,4.167 -2.15523,4.19444 -3.21352,8.5875 -3.89258,16.15848 -0.12119,1.35127 -0.38066,3.29794 -0.57659,4.32594 -0.19593,1.02799 -0.32424,1.92096 -0.28514,1.98437 0.42254,0.68509 0.69428,13.17988 0.33257,15.29108 l -0.17163,1.00168 2.85535,1.70432 c 3.70314,2.21037 5.1125,2.87936 7.29911,3.46469 3.16356,0.84685 5.40445,1.09584 9.91933,1.10219 3.68728,0.005 4.32764,-0.0405 5.65927,-0.40356 0.82584,-0.22515 1.6826,-0.57947 1.9039,-0.78738 0.2213,-0.2079 0.45233,-0.32805 0.51338,-0.26699 0.0611,0.0611 -0.29503,0.16786 0,0 -0.42302,0.0642 -0.0306,0.0589 0.27677,-0.25308 v 0 l 0.3975,-0.55824 c 0.21862,-0.30702 0.52937,-0.66767 0.69056,-0.80145 0.91663,-0.76073 2.55286,-4.35218 3.04922,-6.69288 0.7563,-3.56648 -0.0394,-8.41765 -1.61433,-9.84199 -0.86975,-0.78659 -3.7885,-0.59415 -7.37995,0.48658 -2.2242,0.6693 -2.53197,0.68233 -1.79539,0.076 1.39838,-1.15113 2.06157,-1.47639 4.27772,-2.09803 5.42137,-1.52074 7.638,-1.40876 8.721096,0.44056 0.67179,1.14703 1.26978,4.10635 1.26978,6.2838 0,5.04389 -2.545976,10.25983 -6.125076,12.54841 -2.33108,1.49056 -4.83783,2.8273 -6.15317,3.28122 -1.31561,0.454 -1.72523,0.49731 -5.4101,0.57238 -7.75858,0.15798 -11.93494,-0.72568 -16.75848,-3.54581 -1.42699,-0.8343 -2.65838,-1.51389 -2.73642,-1.51019 -0.078,0.004 -0.48207,0.56548 -0.89785,1.24842 -1.64307,2.69887 -4.15875,4.69557 -6.89949,5.47612 -1.47841,0.42106 -6.9409,0.52152 -9.11743,0.16766 z m 5.38678,-2.07994 c 2.0072,-0.41386 3.71937,-1.42433 5.30448,-3.13054 1.3057,-1.40546 2.84783,-3.68446 2.67853,-3.95839 -0.0444,-0.0719 2.25604,-2.52972 1.13522,-3.09089 l -5.29166,0.91963 -2.45684,-0.0599 c -2.23483,-0.0545 -2.55932,-0.10818 -3.59078,-0.59408 -1.58433,-0.74633 -2.06697,-1.17699 -5.51513,-4.92115 -4.33822,-4.71062 -8.38782,-8.3324 -9.74846,-8.71858 -1.17595,-0.33376 -3.36308,-0.28305 -4.3695,0.1013 -0.98669,0.37682 -1.89605,1.32979 -2.44288,2.56006 -0.32354,0.72787 -0.37826,1.22334 -0.35613,3.22403 0.0541,4.88963 1.44303,8.25865 4.92751,11.95239 3.40953,3.61428 7.58648,5.48881 13.53584,6.07463 1.2766,0.1257 4.84334,-0.0809 6.1898,-0.35849 z m 9.38771,-14.41366 0.014,-2.69663 -0.014,2.69663 c -0.69167,0.73321 3.90341,6.36597 -0.26948,4.23384 l -2.21708,0.25014 c -1.66183,0.73673 -9.60719,-0.25193 -3.40426,-0.58174 0.0987,0.36738 6.30638,-1.57402 6.74418,-1.36619 0.43234,0.0483 -0.32417,0.85642 0.0446,0.71429 l -1.03969,0.21526 c 0.0703,-0.42273 0.13404,-1.98209 0.14174,-3.46523 z"
       id="path54"
       inkscape:connector-curvature="0"
       sodipodi:nodetypes="cccccscscccccsssccccccccsccscsccccccccccsccccsccccccscccccccccccscccsscccccccccccccccsscccccccccccccccccc" />
  </g>
</svg>
