<?xml version="1.0" encoding="UTF-8" standalone="no"?>
<!-- Created with Inkscape (http://www.inkscape.org/) -->

<svg
   xmlns:dc="http://purl.org/dc/elements/1.1/"
   xmlns:cc="http://creativecommons.org/ns#"
   xmlns:rdf="http://www.w3.org/1999/02/22-rdf-syntax-ns#"
   xmlns:svg="http://www.w3.org/2000/svg"
   xmlns="http://www.w3.org/2000/svg"
   xmlns:xlink="http://www.w3.org/1999/xlink"
   xmlns:sodipodi="http://sodipodi.sourceforge.net/DTD/sodipodi-0.dtd"
   xmlns:inkscape="http://www.inkscape.org/namespaces/inkscape"
   width="189.2636mm"
   height="159.99188mm"
   viewBox="0 0 189.2636 159.99188"
   version="1.1"
   id="svg126"
   inkscape:version="0.92.4 (5da689c313, 2019-01-14)"
   sodipodi:docname="logo_GL.svg">
  <defs
     id="defs120">
    <linearGradient
       inkscape:collect="always"
       id="linearGradient4417">
      <stop
         style="stop-color:#ff2a2a;stop-opacity:1;"
         offset="0"
         id="stop4413" />
      <stop
         style="stop-color:#ff2a2a;stop-opacity:0;"
         offset="1"
         id="stop4415" />
    </linearGradient>
    <linearGradient
       inkscape:collect="always"
       id="linearGradient4409">
      <stop
         style="stop-color:#ff6600;stop-opacity:1;"
         offset="0"
         id="stop4405" />
      <stop
         style="stop-color:#ff6600;stop-opacity:0;"
         offset="1"
         id="stop4407" />
    </linearGradient>
    <inkscape:perspective
       sodipodi:type="inkscape:persp3d"
       inkscape:vp_x="-45.957502 : 55.886632 : 1"
       inkscape:vp_y="0 : 135.51783 : 0"
       inkscape:vp_z="205.68018 : 55.886632 : 1"
       inkscape:persp3d-origin="79.861339 : 49.178502 : 1"
       id="perspective190" />
    <linearGradient
       inkscape:collect="always"
       id="linearGradient178">
      <stop
         style="stop-color:#0000ff;stop-opacity:1;"
         offset="0"
         id="stop174" />
      <stop
         style="stop-color:#0000ff;stop-opacity:0;"
         offset="1"
         id="stop176" />
    </linearGradient>
    <linearGradient
       inkscape:collect="always"
       xlink:href="#linearGradient178"
       id="linearGradient180"
       x1="45.002136"
       y1="72.27919"
       x2="82.586281"
       y2="132.36197"
       gradientUnits="userSpaceOnUse"
       gradientTransform="matrix(2.297671,0,0,2.2673714,-74.480535,-143.28802)" />
    <linearGradient
       inkscape:collect="always"
       xlink:href="#linearGradient4409"
       id="linearGradient4411"
       x1="101.33542"
       y1="86.920837"
       x2="90.222916"
       y2="155.18333"
       gradientUnits="userSpaceOnUse"
       gradientTransform="matrix(2.297671,0,0,2.2673714,-77.08593,-151.85815)" />
    <linearGradient
       inkscape:collect="always"
       xlink:href="#linearGradient4417"
       id="linearGradient4419"
       x1="78.845833"
       y1="54.112499"
       x2="80.168747"
       y2="101.47292"
       gradientUnits="userSpaceOnUse"
       gradientTransform="matrix(2.297671,0,0,2.2673714,-77.08593,-151.85815)" />
  </defs>
  <sodipodi:namedview
     id="base"
     pagecolor="#ffffff"
     bordercolor="#666666"
     borderopacity="1.0"
     inkscape:pageopacity="0.0"
     inkscape:pageshadow="2"
     inkscape:zoom="0.5"
     inkscape:cx="854.21109"
     inkscape:cy="253.45325"
     inkscape:document-units="mm"
     inkscape:current-layer="layer1"
     showgrid="false"
     inkscape:window-width="1366"
     inkscape:window-height="705"
     inkscape:window-x="-8"
     inkscape:window-y="-8"
     inkscape:window-maximized="1" />
  <metadata
     id="metadata123">
    <rdf:RDF>
      <cc:Work
         rdf:about="">
        <dc:format>image/svg+xml</dc:format>
        <dc:type
           rdf:resource="http://purl.org/dc/dcmitype/StillImage" />
        <dc:title />
      </cc:Work>
    </rdf:RDF>
  </metadata>
  <g
     inkscape:label="Capa 1"
     inkscape:groupmode="layer"
     id="layer1"
     transform="translate(-7.8711268,-9.0577278)">
    <path
       style="fill:url(#linearGradient4411);fill-opacity:1;stroke-width:0.61003494"
       d="m 141.71769,168.65088 c -5.33602,-0.65808 -13.68752,-2.69797 -17.06304,-4.16772 -1.35102,-0.58825 -7.78057,-4.23133 -14.28792,-8.09572 -14.12845,-8.39018 -16.913451,-9.52972 -23.290223,-9.52972 -4.496362,0 -4.638358,-0.0431 -3.659528,-1.11044 0.5601,-0.61074 2.882772,-2.17085 5.161493,-3.4669 11.522658,-6.55371 16.749168,-20.42435 18.958078,-39.35762 2.44279,-20.937797 5.22355,-27.193197 9.83888,-36.503587 3.41169,-6.882286 7.83,-11.156236 16.29515,-15.762696 8.61625,-4.68865 13.84588,-6.21721 21.18313,-6.19149 7.17652,0.0251 14.81115,1.25993 17.56004,2.84004 1.99467,1.14661 4.34375,4.62786 5.0208,7.44082 0.32515,1.35078 -0.0161,1.71592 -3.1545,3.36893 l -3.51918,1.85392 -1.66575,-3.47576 c -0.91614,-1.91166 -2.33904,-3.91113 -3.16202,-4.44323 -2.48454,-1.60647 -9.54184,-2.73622 -17.16222,-2.74735 -13.28383,-0.0204 -18.94283,3.24606 -24.22566,13.97918 -4.68768,9.523926 -6.50016,17.338606 -9.06137,39.069043 -2.17282,18.43511 -7.12829,28.18148 -18.52854,36.44174 -2.159671,1.56483 -3.92501,2.99708 -3.922972,3.18278 0.0021,0.18569 1.478945,0.3579 3.282032,0.38268 3.89345,0.0534 7.51994,1.74456 21.10623,9.84187 4.99199,2.97517 10.53,6.13242 12.30669,7.01611 5.35608,2.66398 13.75222,4.55669 23.57179,5.31374 11.70184,0.90214 19.16425,0.15917 24.64659,-2.45384 2.10103,-1.00141 3.446,-1.83541 2.9888,-1.85335 -0.50531,-0.0204 -0.0545,-0.90568 1.15004,-2.25939 2.74896,-3.08962 5.89177,-9.81758 7.10987,-15.22039 1.77335,-7.86588 0.2787,-18.55899 -3.09648,-22.15285 -1.32645,-1.41239 -1.98044,-1.60774 -5.37754,-1.60641 -2.19262,5.9e-4 -6.37275,0.66387 -9.65273,1.531 -3.1819,0.8412 -6.0144,1.45409 -6.29444,1.36196 -0.28002,-0.092 0.47752,-0.94439 1.68345,-1.89393 3.00578,-2.36671 13.77834,-5.29322 20.01385,-5.43705 4.23026,-0.0975 4.8672,0.0417 6.31524,1.37988 4.20992,3.89072 5.74437,17.85004 2.89481,26.33526 -3.42982,10.21316 -7.2225,14.93149 -16.27203,20.24355 -9.83809,5.77491 -11.76467,6.31081 -23.43489,6.5185 -5.40406,0.0961 -11.81922,-0.071 -14.25593,-0.37156 z"
       id="path3869"
       inkscape:connector-curvature="0"
       sodipodi:nodetypes="ccssccscccccccccccsccsssccccccccccccsccc" />
    <path
       style="fill:url(#linearGradient180);fill-opacity:1;stroke-width:0.62625438"
       id="path3835"
       d="m 26.83011,24.723977 c 0.07672,1.80215 -1.389901,2.39672 -1.388797,4.19955 5.9e-4,1.62975 0,0 0,0 0.01075,1.60457 -0.06231,0.05 -0.06461,1.65469 -0.02934,1.33596 -0.337442,-0.29585 -0.420687,1.03904 9.193018,14.27453 8.784138,4.06798 9.373668,1.37448 0.293483,-1.39239 0.782442,-2.74247 1.355452,-4.06762 0.460025,-1.19654 1.26881,-2.25839 1.964282,-3.35996 0.756445,-1.03776 1.391862,-2.19979 2.446701,-3.044 0.87484,-0.79888 1.928026,-1.35929 3.149974,-1.66919 1.308457,-0.29849 2.600654,-0.58841 3.951109,-0.72282 1.027864,-0.0558 2.140542,-0.15078 3.149604,0.10112 0.321218,0.0802 1.263224,0.56181 1.524712,0.68981 -15.109285,-7.96016 -5.096741,-2.29271 -1.760529,0.1222 1.99754,1.52087 4.111588,2.92235 6.15373,4.39805 2.066314,1.52186 4.026685,3.14368 5.97184,4.77642 2.179451,1.81319 4.199924,3.75842 6.309579,5.62921 2.13418,1.87415 4.061943,3.8891 5.843646,6.01119 1.869248,2.18904 3.484039,4.52967 5.194138,6.81134 1.855864,2.36357 3.545659,4.8203 5.238768,7.27059 1.572834,2.293 2.737077,4.75642 3.71866,7.27054 1.567244,3.430866 2.641058,6.982256 3.530254,10.578346 1.21605,4.78518 1.975124,9.63545 2.462821,14.51031 0.435865,5.16485 0.4627,10.34596 0.485935,15.521547 0.08871,4.43034 -0.04911,8.85697 -0.708973,13.25365 -0.541401,3.38126 -1.912159,6.57649 -3.756199,9.58679 -1.526871,2.60752 -3.446756,5.02277 -5.561893,7.30433 -2.244748,2.44203 -5.15867,4.25087 -8.46049,5.49887 -3.36919,1.2331 -7.010883,1.53048 -10.628207,1.71227 -4.585133,0.19364 -9.164941,-0.15349 -13.656847,-0.92912 -4.813647,-0.86502 -9.292727,-2.60441 -13.605877,-4.57182 -5.981273,-2.94262 4.288174,2.11034 4.79891,2.35417 0.574534,0.27427 -1.120807,-0.58979 -1.676887,-0.89055 -1.616241,-0.87416 -3.204966,-1.78034 -4.780671,-2.70654 -3.329799,-1.90873 -6.17225,-4.30555 -8.807423,-6.86722 -2.451218,-2.70015 -4.624845,-5.57036 -6.570545,-8.55256 -1.718185,-3.0146 -2.797759,-6.24964 -3.705748,-9.49947 -0.751249,-2.77318 -0.949048,-5.61603 -1.053122,-8.45102 -0.04652,-1.883247 -0.06477,-3.763577 0.169752,-5.637507 0.255165,-1.95652 1.341128,-3.66697 2.580747,-5.28768 1.161433,-1.5536 2.78335,-2.48451 4.793171,-3.05518 1.903204,-0.40231 3.9042,-0.53747 5.853814,-0.36466 2.103719,0.31844 4.119583,0.8781 6.141186,1.4487 0.334827,0.0839 0.675824,0.15169 1.004499,0.25194 0.688669,0.21019 0.947003,0.35834 1.563489,0.67037 0.255487,0.12946 1.021124,0.51836 0.762811,0.39323 -7.979162,-3.86683 -10.108402,-5.35001 -6.733132,-3.10363 2.714143,1.92257 5.238417,4.02552 7.700722,6.17809 2.483736,2.15852 4.907221,4.36932 7.282449,6.61501 2.28072,2.181637 4.427699,4.462317 6.56811,6.744267 1.672517,1.78493 3.346667,3.56993 4.990406,5.37428 0.979239,1.03429 1.883469,2.12186 2.863381,3.15438 4.1796,3.77251 7.693658,4.89384 12.665132,4.95535 2.372861,-0.007 4.745588,-0.0255 7.118516,-0.0245 1.309135,0.0755 2.585321,-0.0376 3.875429,-0.20519 L 77.78924,114.193 v 0 c -1.243359,0.13129 -2.487216,0.16325 -3.740308,0.1467 -2.3831,0.0136 -4.767698,0.035 -7.149691,-0.0424 -0.742424,-0.0426 -1.513517,-0.0619 -2.234313,-0.24045 -0.203229,-0.0503 -0.773768,-0.2881 -0.59216,-0.19544 7.523069,3.84151 11.142723,5.20037 7.70166,3.89101 -0.583792,-0.38212 -0.838981,-0.76065 -1.263404,-1.26623 -0.536488,-0.63907 -1.27035,-1.12793 -1.747724,-1.80725 -1.62259,-1.85254 -3.411202,-3.6018 -5.074351,-5.42809 -2.156935,-2.28955 -4.307106,-4.58602 -6.577434,-6.79498 -2.34528,-2.27986 -4.795453,-4.486057 -7.285821,-6.649947 -2.399226,-2.17499 -4.910677,-4.26111 -7.555979,-6.21527 -3.573418,-2.89541 -0.681149,-0.66407 -10.403886,-5.52923 -1.070009,-0.53542 -2.23703,-0.87063 -3.424393,-1.16101 -2.058033,-0.57514 -4.149474,-1.08646 -6.311015,-1.2814 -2.052315,-0.0358 -4.14032,0.0826 -6.094694,0.65772 -2.135284,0.74392 -3.849904,1.84718 -5.096414,3.53788 -1.319759,1.72708 -2.492408,3.54533 -2.844689,5.61664 -0.281765,1.92666 -0.254596,3.8479 -0.14912,5.78809 0.108908,2.892547 0.297722,5.797377 1.033429,8.631617 0.904316,3.31127 1.988933,6.59166 3.597852,9.71066 1.940721,3.03 4.114324,5.93337 6.510139,8.71822 2.575289,2.62541 5.381788,5.09447 8.690415,7.05607 5.901895,3.57446 12.182761,6.64923 18.539354,9.59785 4.358597,1.9052 8.894149,3.54564 13.727424,4.3416 4.584024,0.70555 9.249779,1.05211 13.90962,0.82301 3.712441,-0.22673 7.4243,-0.63076 10.849703,-1.96248 3.365338,-1.39986 6.393901,-3.29369 8.726357,-5.82303 2.149743,-2.32351 4.090073,-4.80055 5.634833,-7.45601 1.86753,-3.11343 3.29807,-6.40101 3.82935,-9.88879 0.66351,-4.44274 0.78792,-8.91562 0.67771,-13.39153 -0.0404,-5.19888 -0.10339,-10.400727 -0.48437,-15.591147 -0.44185,-4.88627 -1.14755,-9.752 -2.3097,-14.55514 -0.81147,-3.60122 -1.7988,-7.16653 -3.32917,-10.60205 -0.94105,-2.571296 -2.06875,-5.084756 -3.623871,-7.438356 -1.689279,-2.46206 -3.3914,-4.9255 -5.2377,-7.30291 -0.864948,-1.16717 -1.759227,-2.3194 -2.612157,-3.49296 -0.556814,-0.7661 -1.037538,-1.57256 -1.622915,-2.32303 -0.277892,-0.3563 -0.603457,-0.68371 -0.905197,-1.02559 -1.794668,-2.14686 -3.649053,-4.23386 -5.794964,-6.13904 -2.155562,-1.8231 -4.112153,-3.80896 -6.271474,-5.62912 -1.947805,-1.64209 -3.89327,-3.28843 -5.951085,-4.83117 -2.014408,-1.50599 -4.139953,-2.89338 -6.158491,-4.39494 -4.637724,-3.53168 -9.827168,-6.2501 -15.385303,-8.70457 -1.638849,-0.57025 -3.325431,-0.64595 -5.071417,-0.40498 -1.383165,0.19704 -2.733117,0.511 -4.072395,0.86399 -1.292568,0.4549 -2.441222,1.11395 -3.391748,1.99757 -1.052621,0.96449 -1.789525,2.13895 -2.581571,3.26417 -0.711015,1.13735 -1.562904,2.2243 -2.038057,3.45671 -0.607641,1.3618 -1.050733,2.77203 -1.388798,4.19955 -1.351191,4.8899 -0.03956,2.83249 8.619886,6.73233 0.03305,0.0136 -0.01954,-0.0612 -0.03021,-0.092 -0.07978,-1.348 -0.01747,-2.69815 -0.04455,-4.04719 -0.0022,-1.60167 -0.0011,-3.20338 0.01075,-4.80503 -0.01075,-1.63519 -0.01954,-3.27037 -0.01954,-4.90558 0.0011,-1.79065 -0.03543,-3.58215 0.04195,-5.37208 l -5.151488,4.83336 z"
       inkscape:connector-curvature="0"
       sodipodi:nodetypes="cccccccccccccccccccccccccccccccccccccccccccccccccccccccccccccccccccccccccccccccccccccccccccccccccccccccccccccccccc" />
    <path
       style="opacity:0.98000004;fill:#ff0000;stroke:#000080;stroke-width:1.01015258"
       d=""
       id="path250"
       inkscape:connector-curvature="0"
       transform="scale(0.26458333)" />
    <ellipse
       style="fill:url(#linearGradient4419);fill-opacity:1;stroke-width:0.60390371"
       id="path287"
       cx="109.63403"
       cy="34.768101"
       rx="23.448555"
       ry="25.710373" />
    <path
       style="fill:#ff0000;stroke-width:0.08928572"
       d=""
       id="path4090"
       inkscape:connector-curvature="0"
       transform="scale(0.26458333)" />
    <path
       style="fill:#ff0000;stroke-width:0.08928572"
       d=""
       id="path4102"
       inkscape:connector-curvature="0"
       transform="scale(0.26458333)" />
    <path
       style="fill:#ff0000;stroke-width:0.08928572"
       d=""
       id="path4106"
       inkscape:connector-curvature="0"
       transform="scale(0.26458333)" />
    <path
       style="fill:#ff0000;stroke-width:0.08928572"
       d=""
       id="path4108"
       inkscape:connector-curvature="0"
       transform="scale(0.26458333)" />
    <path
       style="fill:#ff0000;stroke-width:0.02209709"
       d=""
       id="path4126"
       inkscape:connector-curvature="0"
       transform="scale(0.26458333)" />
    <path
       style="fill:#ff0000;stroke-width:0.02209709"
       d=""
       id="path4128"
       inkscape:connector-curvature="0"
       transform="scale(0.26458333)" />
    <path
       style="fill:#ff0000;stroke-width:0.02209709"
       d=""
       id="path4136"
       inkscape:connector-curvature="0"
       transform="scale(0.26458333)" />
    <path
       style="fill:#ff0000;stroke-width:0.02209709"
       d=""
       id="path4138"
       inkscape:connector-curvature="0"
       transform="scale(0.26458333)" />
    <path
       style="fill:#ff0000;stroke-width:0.02209709"
       d=""
       id="path4150"
       inkscape:connector-curvature="0"
       transform="scale(0.26458333)" />
    <path
       style="fill:#ff0000;stroke-width:0.02209709"
       d=""
       id="path4166"
       inkscape:connector-curvature="0"
       transform="scale(0.26458333)" />
    <path
       style="fill:#ff0000;stroke-width:0.02209709"
       d=""
       id="path4168"
       inkscape:connector-curvature="0"
       transform="scale(0.26458333)" />
    <path
       style="fill:#ff0000;stroke-width:0.02209709"
       d=""
       id="path4170"
       inkscape:connector-curvature="0"
       transform="scale(0.26458333)" />
    <path
       style="fill:#ff0000;stroke-width:0.02209709"
       d=""
       id="path4172"
       inkscape:connector-curvature="0"
       transform="scale(0.26458333)" />
    <path
       style="fill:#ff0000;stroke-width:0.08838835"
       d=""
       id="path4180"
       inkscape:connector-curvature="0"
       transform="scale(0.26458333)" />
    <path
       style="fill:#ff0000;stroke-width:0.08838835"
       d=""
       id="path4226"
       inkscape:connector-curvature="0"
       transform="scale(0.26458333)" />
  </g>
</svg>
