<?xml version="1.0" encoding="UTF-8" standalone="no"?>
<!-- Created with Inkscape (http://www.inkscape.org/) -->

<svg
   xmlns:dc="http://purl.org/dc/elements/1.1/"
   xmlns:cc="http://creativecommons.org/ns#"
   xmlns:rdf="http://www.w3.org/1999/02/22-rdf-syntax-ns#"
   xmlns:svg="http://www.w3.org/2000/svg"
   xmlns="http://www.w3.org/2000/svg"
   xmlns:xlink="http://www.w3.org/1999/xlink"
   xmlns:sodipodi="http://sodipodi.sourceforge.net/DTD/sodipodi-0.dtd"
   xmlns:inkscape="http://www.inkscape.org/namespaces/inkscape"
   width="210mm"
   height="297mm"
   viewBox="0 0 210 297"
   version="1.1"
   id="svg126"
   inkscape:version="0.92.4 (5da689c313, 2019-01-14)"
   sodipodi:docname="logo.svg">
  <defs
     id="defs120">
    <inkscape:perspective
       sodipodi:type="inkscape:persp3d"
       inkscape:vp_x="0 : 148.5 : 1"
       inkscape:vp_y="0 : 1000 : 0"
       inkscape:vp_z="210 : 148.5 : 1"
       inkscape:persp3d-origin="105 : 99 : 1"
       id="perspective190" />
    <linearGradient
       inkscape:collect="always"
       id="linearGradient186">
      <stop
         style="stop-color:#ff2a2a;stop-opacity:1;"
         offset="0"
         id="stop182" />
      <stop
         style="stop-color:#ff2a2a;stop-opacity:0;"
         offset="1"
         id="stop184" />
    </linearGradient>
    <linearGradient
       inkscape:collect="always"
       id="linearGradient178">
      <stop
         style="stop-color:#0000ff;stop-opacity:1;"
         offset="0"
         id="stop174" />
      <stop
         style="stop-color:#0000ff;stop-opacity:0;"
         offset="1"
         id="stop176" />
    </linearGradient>
    <linearGradient
       inkscape:collect="always"
       xlink:href="#linearGradient178"
       id="linearGradient180"
       x1="43.282345"
       y1="68.707314"
       x2="82.586281"
       y2="132.36197"
       gradientUnits="userSpaceOnUse"
       gradientTransform="translate(1.1339286,3.7797619)" />
    <linearGradient
       inkscape:collect="always"
       xlink:href="#linearGradient186"
       id="linearGradient188"
       x1="107.86871"
       y1="93.423981"
       x2="60.135643"
       y2="133.43105"
       gradientUnits="userSpaceOnUse" />
  </defs>
  <sodipodi:namedview
     id="base"
     pagecolor="#ffffff"
     bordercolor="#666666"
     borderopacity="1.0"
     inkscape:pageopacity="0.0"
     inkscape:pageshadow="2"
     inkscape:zoom="0.7"
     inkscape:cx="653.71179"
     inkscape:cy="725.56943"
     inkscape:document-units="mm"
     inkscape:current-layer="layer1"
     showgrid="false"
     inkscape:window-width="1366"
     inkscape:window-height="705"
     inkscape:window-x="-8"
     inkscape:window-y="-8"
     inkscape:window-maximized="1" />
  <metadata
     id="metadata123">
    <rdf:RDF>
      <cc:Work
         rdf:about="">
        <dc:format>image/svg+xml</dc:format>
        <dc:type
           rdf:resource="http://purl.org/dc/dcmitype/StillImage" />
        <dc:title></dc:title>
      </cc:Work>
    </rdf:RDF>
  </metadata>
  <g
     inkscape:label="Capa 1"
     inkscape:groupmode="layer"
     id="layer1">
    <path
       style="fill:url(#linearGradient188);fill-opacity:1;stroke-width:0.26726952"
       d="m 95.22844,141.3571 c -2.32236,-0.29024 -5.95713,-1.18991 -7.42623,-1.83813 -0.588,-0.25944 -3.38629,-1.86618 -6.21844,-3.57053 -6.14903,-3.7004 -7.36113,-4.20298 -10.13645,-4.20298 -1.95692,0 -2.01872,-0.019 -1.59271,-0.48975 0.24377,-0.26936 1.25465,-0.95743 2.2464,-1.52904 5.01493,-2.89044 7.28963,-9.00794 8.251,-17.35826 1.06316,-9.23439 2.27341,-11.99327 4.28211,-16.099521 1.48485,-3.03536 3.4078,-4.92034 7.09203,-6.95197 3.74999,-2.06788 6.026051,-2.74203 9.21939,-2.73069 3.12339,0.0111 6.44616,0.55568 7.64254,1.25257 0.86813,0.5057 1.8905,2.04107 2.18517,3.28169 0.14151,0.59575 -0.007,0.75679 -1.37291,1.48583 l -1.53163,0.81766 -0.72497,-1.53295 c -0.39873,-0.84312 -1.01801,-1.72496 -1.37619,-1.95964 -1.08133,-0.70852 -4.15283,-1.20678 -7.4694,-1.21169 -5.78143,-0.009 -8.24436,1.43164 -10.54357,6.16537 -2.04019,4.20043 -2.82902,7.647011 -3.94372,17.230991 -0.94566,8.13061 -3.1024,12.42914 -8.06405,16.07224 -0.93994,0.69015 -1.70826,1.32183 -1.70737,1.40373 7.94e-4,0.0819 0.64367,0.15785 1.42842,0.16878 1.69452,0.0236 3.27285,0.76942 9.18592,4.34065 2.17263,1.31217 4.5829,2.70464 5.35616,3.09438 2.33109,1.17492 5.98528,2.00968 10.25899,2.34357 5.09291,0.39788 8.34073,0.0702 10.72677,-1.08224 0.91442,-0.44166 1.49978,-0.80949 1.3008,-0.8174 -0.21993,-0.009 -0.0237,-0.39944 0.50052,-0.99648 1.19641,-1.36264 2.56424,-4.32994 3.09438,-6.71279 0.77181,-3.46916 0.1213,-8.18525 -1.34766,-9.77028 -0.5773,-0.62292 -0.86193,-0.70908 -2.34043,-0.70849 -0.95428,2.6e-4 -2.77357,0.29279 -4.20109,0.67523 -1.38484,0.371 -2.61761,0.64131 -2.73949,0.60068 -0.12187,-0.0406 0.20783,-0.41651 0.73268,-0.8353 1.30818,-1.04381 5.99665,-2.33452 8.71049,-2.39795 1.84111,-0.043 2.11832,0.0184 2.74854,0.60858 1.83226,1.71596 2.50008,7.87257 1.25989,11.61489 -1.49274,4.5044 -3.1434,6.58537 -7.08197,8.9282 -4.28176,2.54696 -5.12026,2.78331 -10.19941,2.87491 -2.351969,0.0424 -5.144001,-0.0313 -6.20451,-0.16387 z"
       id="path3869"
       inkscape:connector-curvature="0"
       sodipodi:nodetypes="ccssccscccccccccccsccsssccccccccccccsccc" />
    <path
       style="fill:url(#linearGradient180);fill-opacity:1;stroke-width:0.27437565"
       id="path3835"
       d="m 44.415967,72.487264 c 0.03339,0.79482 0.01778,1.59027 0.01826,2.38539 2.57e-4,0.71878 -0.0038,1.43754 -0.0085,2.1563 0.0047,0.70768 0.0057,1.41534 0.0047,2.12304 -0.01277,0.58921 0.01684,1.17914 -0.01939,1.76788 4.001016,6.29563 3.823062,1.79414 4.079639,0.6062 0.127731,-0.6141 0.340537,-1.20954 0.589924,-1.79398 0.200214,-0.52772 0.552216,-0.99604 0.854902,-1.48188 0.329222,-0.45769 0.60577,-0.97019 1.064861,-1.34252 0.380751,-0.35234 0.839122,-0.5995 1.370942,-0.73618 0.569471,-0.13164 1.131866,-0.25951 1.719615,-0.31879 0.44735,-0.0246 0.931614,-0.0665 1.370781,0.0446 0.139802,0.0354 0.549785,0.24778 0.66359,0.30423 -6.575913,-3.51074 -2.21822,-1.01117 -0.766223,0.0539 0.869376,0.67076 1.789459,1.28887 2.678247,1.93971 0.899308,0.6712 1.752507,1.38649 2.599084,2.10659 0.948548,0.79969 1.827905,1.65761 2.746076,2.4827 0.928845,0.82658 1.767852,1.71525 2.543291,2.65117 0.81354,0.96545 1.516335,1.99777 2.26061,3.004073 0.807715,1.04243 1.543153,2.12594 2.280031,3.20662 0.684535,1.0113 1.191239,2.09777 1.618448,3.20659 0.682104,1.51315 1.149454,3.07945 1.536449,4.665469 0.529254,2.110454 0.859621,4.249614 1.07188,6.399614 0.189701,2.27791 0.201377,4.56298 0.211489,6.84562 0.0386,1.95395 -0.02138,3.90627 -0.308562,5.84538 -0.235633,1.49127 -0.832215,2.90049 -1.634784,4.22815 -0.664527,1.15002 -1.50011,2.21524 -2.420667,3.2215 -0.976966,1.07703 -2.245172,1.8748 -3.682201,2.42522 -1.46635,0.54384 -3.0513,0.675 -4.625644,0.75518 -1.995557,0.0854 -3.988796,-0.0677 -5.943778,-0.40978 -2.095012,-0.38151 -4.044412,-1.14865 -5.921595,-2.01636 -2.60319,-1.29781 1.866313,0.93075 2.088597,1.03829 0.250051,0.12096 -0.487801,-0.26012 -0.72982,-0.39277 -0.703426,-0.38554 -1.394876,-0.7852 -2.08066,-1.19369 -1.449206,-0.84183 -2.686307,-1.89892 -3.833196,-3.02872 -1.066827,-1.19087 -2.01284,-2.45674 -2.859654,-3.77201 -0.747794,-1.32956 -1.21765,-2.75634 -1.612828,-4.18964 -0.326961,-1.22308 -0.413048,-2.47689 -0.458343,-3.72723 -0.02025,-0.83059 -0.02819,-1.65989 0.07388,-2.48637 0.111053,-0.8629 0.58369,-1.61728 1.123201,-2.33207 0.505483,-0.6852 1.211379,-1.09577 2.0861,-1.34746 0.828319,-0.17743 1.699199,-0.23704 2.547716,-0.16083 0.915588,0.14045 1.792939,0.38728 2.672788,0.63894 0.145724,0.037 0.294134,0.0669 0.437181,0.11111 0.299725,0.0927 0.412158,0.15804 0.680467,0.29566 0.111194,0.0571 0.444417,0.22862 0.331993,0.17343 -3.472717,-1.70542 -4.399412,-2.35956 -2.930416,-1.36882 1.181258,0.84793 2.279881,1.77541 3.351534,2.72478 1.08098,0.95199 2.135737,1.92704 3.169492,2.91748 0.992622,0.96219 1.927037,1.96806 2.858594,2.97449 0.727919,0.78722 1.456548,1.57448 2.171941,2.37027 0.426188,0.45616 0.81973,0.93582 1.246211,1.3912 1.819059,1.66383 3.348459,2.15838 5.512161,2.18551 1.032724,-0.003 2.06539,-0.0113 3.098144,-0.0108 0.569764,0.0333 1.125188,-0.0166 1.686674,-0.0905 0,0 -3.59391,-2.19411 -3.59391,-2.19411 v 0 c -0.541139,0.0579 -1.082495,0.072 -1.62787,0.0647 -1.03718,0.006 -2.075013,0.0154 -3.111712,-0.0187 -0.32312,-0.0188 -0.658718,-0.0273 -0.972425,-0.10605 -0.08845,-0.0222 -0.336762,-0.12707 -0.257722,-0.0862 3.274215,1.69426 4.849573,2.29357 3.351942,1.71609 -0.25408,-0.16853 -0.365144,-0.33548 -0.549863,-0.55846 -0.233492,-0.28185 -0.552886,-0.49746 -0.76065,-0.79707 -0.706189,-0.81704 -1.484635,-1.58853 -2.208476,-2.394 -0.938748,-1.00978 -1.874553,-2.02261 -2.862653,-2.99685 -1.02072,-1.00551 -2.087093,-1.97853 -3.170959,-2.93289 -1.044199,-0.95926 -2.137241,-1.87932 -3.288538,-2.74118 -1.555235,-1.27699 -0.296452,-0.29288 -4.528014,-2.43861 -0.465693,-0.23614 -0.973608,-0.38398 -1.490376,-0.51205 -0.895704,-0.25366 -1.805948,-0.47917 -2.746701,-0.56515 -0.893215,-0.0158 -1.801964,0.0364 -2.652553,0.29008 -0.929325,0.3281 -1.675568,0.81468 -2.218078,1.56035 -0.57439,0.76171 -1.084754,1.56363 -1.238075,2.47716 -0.122631,0.84973 -0.110806,1.69707 -0.0649,2.55277 0.0474,1.27573 0.129575,2.55687 0.449772,3.80689 0.393579,1.4604 0.86563,2.90718 1.565869,4.28278 0.844647,1.33635 1.79065,2.61685 2.833364,3.84508 1.120826,1.15791 2.34228,2.24686 3.782272,3.112 2.568642,1.57648 5.302221,2.93257 8.068759,4.23303 1.896963,0.84027 3.870941,1.56377 5.974495,1.91482 1.995074,0.31117 4.02572,0.46402 6.053791,0.36298 1.615741,-0.1 3.231229,-0.27819 4.72204,-0.86553 1.464675,-0.6174 2.782781,-1.45265 3.797919,-2.56819 0.935617,-1.02476 1.780093,-2.11723 2.452407,-3.28839 0.812795,-1.37315 1.435402,-2.8231 1.666626,-4.36135 0.288774,-1.95942 0.342924,-3.93214 0.294955,-5.90619 -0.0176,-2.29291 -0.045,-4.58713 -0.210807,-6.87631 -0.192304,-2.15504 -0.499438,-4.30102 -1.005242,-6.41939 -0.353166,-1.588281 -0.782873,-3.16072 -1.448922,-4.67592 -0.409567,-1.13404 -0.900377,-2.24258 -1.577202,-3.28061 -0.735211,-1.08587 -1.476015,-2.17234 -2.279568,-3.22087 -0.376446,-0.51477 -0.765656,-1.02295 -1.136872,-1.54053 -0.24234,-0.337886 -0.451559,-0.693566 -0.706329,-1.024556 -0.120949,-0.15714 -0.262642,-0.30154 -0.393967,-0.45232 -0.781077,-0.94685 -1.588149,-1.8673 -2.522099,-2.70756 -0.938151,-0.80406 -1.789705,-1.6799 -2.729492,-2.48266 -0.84773,-0.72423 -1.694442,-1.45033 -2.590051,-2.13074 -0.876717,-0.6642 -1.801804,-1.27609 -2.680319,-1.93834 -2.018446,-1.55761 -4.277013,-2.75654 -6.696043,-3.83906 -0.713265,-0.2515 -1.447305,-0.28489 -2.207199,-0.17861 -0.601985,0.0869 -1.189516,0.22537 -1.772401,0.38105 -0.562556,0.20063 -1.062477,0.4913 -1.476168,0.88101 -0.458125,0.42538 -0.778843,0.94336 -1.12356,1.43963 -0.30945,0.50161 -0.680212,0.981 -0.88701,1.52454 -0.264459,0.60061 -0.457303,1.22258 -0.604437,1.85217 -0.58807,2.15664 -0.01722,1.24924 3.751575,2.96922 0.01438,0.006 -0.0085,-0.027 -0.01315,-0.0406 -0.03472,-0.59452 -0.0076,-1.18999 -0.01939,-1.78497 -9.52e-4,-0.7064 -4.76e-4,-1.41282 0.0047,-2.11921 -0.0047,-0.72118 -0.0085,-1.44236 -0.0085,-2.16355 4.75e-4,-0.78975 -0.01542,-1.57987 0.01826,-2.3693 2e-6,0 -3.93947,-1.73635 -3.93947,-1.73635 z"
       inkscape:connector-curvature="0" />
    <g
       sodipodi:type="inkscape:box3d"
       id="g192"
       style="fill:#ff2a2a;stroke:#000080"
       inkscape:perspectiveID="#perspective190"
       inkscape:corner0="1.2436658 : 0.034460571 : 0 : 1"
       inkscape:corner7="0.67101555 : -0.051802679 : 0.25 : 1">
      <path
         sodipodi:type="inkscape:box3dside"
         id="path194"
         style="fill:#353564;fill-rule:evenodd;stroke:none;stroke-linejoin:round"
         inkscape:box3dsidetype="6"
         d="m 46.798415,155.20307 v 38.44745 L 63.160029,189.124 v -34.59294 z"
         points="46.798415,193.65052 63.160029,189.124 63.160029,154.53106 46.798415,155.20307 " />
      <path
         sodipodi:type="inkscape:box3dside"
         id="path202"
         style="fill:#afafde;fill-rule:evenodd;stroke:none;stroke-linejoin:round"
         inkscape:box3dsidetype="13"
         d="m 46.798415,193.65052 16.037626,15.4729 19.151845,-7.8895 L 63.160029,189.124 Z"
         points="62.836041,209.12342 81.987886,201.23392 63.160029,189.124 46.798415,193.65052 " />
      <path
         sodipodi:type="inkscape:box3dside"
         id="path204"
         style="fill:#e9e9ff;fill-rule:evenodd;stroke:none;stroke-linejoin:round"
         inkscape:box3dsidetype="11"
         d="m 63.160029,154.53106 18.827857,1.79784 v 44.90502 L 63.160029,189.124 Z"
         points="81.987886,156.3289 81.987886,201.23392 63.160029,189.124 63.160029,154.53106 " />
      <path
         sodipodi:type="inkscape:box3dside"
         id="path196"
         style="fill:#4d4d9f;fill-rule:evenodd;stroke:none;stroke-linejoin:round"
         inkscape:box3dsidetype="5"
         d="m 46.798415,155.20307 16.037626,2.29711 19.151845,-1.17128 -18.827857,-1.79784 z"
         points="62.836041,157.50018 81.987886,156.3289 63.160029,154.53106 46.798415,155.20307 " />
      <path
         sodipodi:type="inkscape:box3dside"
         id="path200"
         style="fill:#d7d7ff;fill-rule:evenodd;stroke:none;stroke-linejoin:round"
         inkscape:box3dsidetype="14"
         d="m 62.836041,157.50018 v 51.62324 l 19.151845,-7.8895 V 156.3289 Z"
         points="62.836041,209.12342 81.987886,201.23392 81.987886,156.3289 62.836041,157.50018 " />
      <path
         sodipodi:type="inkscape:box3dside"
         id="path198"
         style="fill:#8686bf;fill-rule:evenodd;stroke:none;stroke-linejoin:round"
         inkscape:box3dsidetype="3"
         d="m 46.798415,155.20307 16.037626,2.29711 v 51.62324 l -16.037626,-15.4729 z"
         points="62.836041,157.50018 62.836041,209.12342 46.798415,193.65052 46.798415,155.20307 " />
    </g>
  </g>
</svg>
